<svg version="1.1" xmlns="http://www.w3.org/2000/svg" viewBox="0 0 2222.207297242072 861.8059327631445" width="2222.207297242072" height="861.8059327631445">
  <!-- svg-source:excalidraw -->
  
  <defs>
    <style>
      @font-face {
        font-family: "Virgil";
        src: url("https://excalidraw.com/Virgil.woff2");
      }
      @font-face {
        font-family: "Cascadia";
        src: url("https://excalidraw.com/Cascadia.woff2");
      }
    </style>
  </defs>
  <rect x="0" y="0" width="2222.207297242072" height="861.8059327631445" fill="#ffffff"></rect><g stroke-linecap="round" transform="translate(10 10) rotate(0 159 48.5)"><path d="M0 0 C0 0, 0 0, 0 0 M0 0 C0 0, 0 0, 0 0 M-0.18 6.38 C0.36 5.62, 2.54 3.38, 5.04 0.95 M-0.38 6.51 C0.47 4.89, 1.91 4.13, 5.35 0.21 M-1.1 10.7 C4.79 9.09, 6.72 4.38, 12.17 -0.31 M-0.13 12.54 C2.32 9.65, 5.03 5.98, 11.29 0.69 M-0.29 19.08 C5.06 15.01, 7.76 7.79, 16.62 -0.95 M0.7 19 C5.28 12.81, 8.52 8.25, 14.72 1.29 M-0.95 25.47 C5.46 15.22, 11.02 10.22, 21.76 1.59 M1.05 24.69 C8.06 16.05, 15.55 5.36, 20.7 0.81 M1.24 30.46 C10.84 17.28, 21.6 7.74, 27.03 1.95 M-0.3 30.24 C9.45 19.7, 19.37 8.48, 25.99 1.29 M-1.36 38.41 C7.82 28.29, 12.82 20.4, 31.52 0.91 M-0.57 37.41 C10.5 24.08, 21.96 11.27, 32.43 -1.01 M1.51 42.28 C6.69 35.08, 16.76 23.03, 35.31 0.09 M-0.61 41.63 C9.35 31.53, 19.56 20.65, 37.27 -0.32 M-1.75 50.62 C14.52 33.14, 26.31 17.71, 40.9 -1.2 M0.54 49.33 C11.63 36.14, 25.01 21.74, 42.82 0.68 M0.2 53.14 C13.75 38.2, 28.86 22.05, 46.14 0.82 M0.63 54.76 C19.52 33.61, 36.96 13.04, 46.56 0.04 M-1.46 59.57 C12.27 48.26, 24.92 31.28, 53.69 -0.76 M0.38 61.1 C17.41 40.71, 36.32 18.74, 52.9 0.52 M1.09 69.15 C15.68 48.35, 32.66 32.2, 59.91 -0.74 M0.48 67.31 C22.4 40.62, 43.78 14.95, 57.22 0.8 M0.53 73.76 C13.96 53.81, 32.92 35.11, 64.38 -1 M1.01 73.46 C17.62 53.27, 35.78 31.65, 63.62 -0.52 M0.61 78.95 C15.98 61.42, 29.81 46.53, 70.74 0.33 M-0.11 79.08 C15.92 63.69, 30.04 46.83, 69.01 0.26 M-1.06 83.48 C22.7 61.86, 44.25 34.28, 76.2 1.64 M0.88 85.01 C27.72 51.36, 56.7 20.23, 74.8 -0.08 M1.95 92.21 C31.83 55.74, 61.86 19.06, 80.46 0.71 M0.72 91.48 C23.76 64.1, 47.26 36.3, 79.07 -0.45 M0.25 98.8 C28.55 64.31, 56.03 33.01, 83.11 -0.52 M-0.18 97.22 C22.67 72.19, 44.04 45.94, 84.17 0.54 M4.93 96.6 C27.22 74.17, 47.1 52.52, 88.62 -1.12 M4.63 97.5 C37.39 61.28, 69.47 25.19, 90.95 -0.29 M11.13 95.48 C40.35 62.53, 68.01 29.89, 95.75 -0.37 M10.56 97.33 C33.44 72.83, 53.68 48.12, 96.34 -0.6 M16.83 96.6 C49.45 60.77, 82.91 24.21, 102.49 1.08 M16.91 97.5 C35.75 74.84, 54.89 53.23, 101.58 0.59 M20.97 97.22 C51.71 59.47, 84.08 23.57, 107.51 -2.01 M22.22 97.61 C44.15 70.68, 67.14 45.67, 105.81 -1.07 M26.42 95.53 C49.7 74.71, 69.77 46.64, 111.07 -0.65 M27.49 98.27 C56.52 61.33, 87.12 26.6, 112.28 -0.08 M31.39 97.44 C58.03 65.84, 85.83 35.73, 115.83 1.98 M32.81 96.1 C57.41 68.9, 80.98 42.23, 115.31 -0.33 M36.41 97.43 C58.25 72.31, 82.13 45.64, 123.06 1.51 M36.48 97.89 C66.34 62.99, 95.1 29.32, 121.76 0.29 M43.73 97.33 C67.18 68.86, 93.45 38.63, 126.84 1.55 M43.72 97.68 C70.31 66.31, 97.14 36.35, 127.44 0.25 M48.26 99.14 C79.08 60.09, 114.13 21.17, 132.88 1.16 M47.82 96.84 C68.39 71.95, 91.13 47.65, 133.13 0.16 M53.03 95.85 C73.02 74.73, 91.61 51.83, 137.42 -0.3 M52.75 97.14 C70.76 76.67, 89.73 57.63, 137.71 0.93 M60.11 96.26 C77.55 71.27, 99.73 50, 142.69 -0.34 M58.38 96.91 C75.75 76.55, 93.99 55.07, 142.87 0.82 M66.07 95.76 C93.05 62.86, 126.15 26.85, 147.84 -0.56 M65.09 96.08 C82.3 74.61, 102.6 53.56, 148.2 -0.43 M68.86 97.19 C101.36 58.68, 135.74 20.11, 152.36 0.18 M68.92 96.29 C93.16 68.08, 118.16 40.7, 153.88 -0.55 M74.68 98.35 C97.57 71.82, 121.59 44.19, 159.05 -1.43 M73.63 96.74 C98.58 69.54, 125.05 39.02, 157.84 -0.6 M80.1 97.1 C99.79 74.05, 115.23 54.37, 165.45 1.66 M79.08 96.52 C110.51 62.29, 142.92 26.64, 164.42 0.07 M84.38 98.42 C109.5 67.47, 133.38 40.73, 170.76 -0.33 M84.67 97.95 C114.53 62.31, 145.38 26.82, 169.5 -0.01 M90.15 95.95 C109.46 70.94, 132.1 49.61, 175.28 0.81 M90.38 97.47 C115.16 69.41, 139.07 40.16, 175.17 0.57 M96.44 98.82 C120.01 70.98, 144.26 42.71, 179.37 0.1 M94.89 96.67 C114.91 75.51, 134.06 54.61, 180.9 0.28 M100.04 96.47 C124.29 73.15, 146.07 46, 186.87 -1.85 M101.26 96.41 C126.42 66.78, 153.77 35.75, 186.17 -0.32 M104.51 97.44 C127.71 75.12, 144.7 50.58, 192.02 2.01 M107.05 97.94 C129.56 70.53, 153.57 42.45, 191.67 -0.43 M113.54 98.19 C141.94 64.22, 170.34 29.39, 194.95 -0.04 M112.02 96.95 C133.31 73.16, 154.13 48.97, 195.88 0.03 M115.95 97.93 C141.62 68.6, 168.55 37.36, 200.56 -1.68 M116.26 96.69 C136.89 74.43, 156.03 54.08, 200.32 0.53 M123.11 95.4 C145.26 68.69, 165.74 44.81, 205.99 0.29 M121.86 98.06 C150.81 64.76, 177.57 32.89, 206.14 -0.94 M125.85 95.72 C157.66 63.8, 191.28 28.97, 211.55 -1.26 M127.06 96.69 C153.93 66.72, 181.25 37.17, 211.27 0.17 M131.95 95.18 C157.57 65.64, 184.21 34.33, 216.16 -0.99 M133.9 97.07 C161.52 63.17, 191.38 31.64, 217.16 0.1 M139.01 96.05 C159.34 73.15, 180.03 51.48, 224.28 -0.25 M138.37 97.58 C165.18 67.42, 192.52 36.42, 221.82 0.87 M143.97 95.4 C162.65 74.64, 179.64 54.13, 229.36 -0.28 M144.1 96.66 C167.08 68.93, 191.38 41.84, 228.57 -0.66 M147.95 95.91 C170.76 71.91, 192.89 45.15, 232.76 -1.38 M148.48 97.86 C178.79 61.08, 208.96 26.03, 233.14 -0.64 M153.79 98.69 C172.65 77.36, 188.79 57.17, 238.54 0.61 M154.35 97.9 C181.41 65.46, 206.43 36.49, 237.72 -0.44 M158.91 98.09 C191.71 60.66, 225.89 22.57, 243.7 -0.6 M160.1 97.87 C183.32 69.76, 206.98 42.73, 243.33 -0.26 M164.78 98.49 C183.29 74.93, 202.87 53.54, 250.36 1.34 M165.41 97.19 C181.33 76.76, 197.7 58.29, 249.32 0.18 M169.85 97.15 C201.94 58.9, 234.61 25.06, 254.56 -1.08 M169.32 96.83 C195.08 69.6, 218.93 40.29, 254.35 0.47 M174.99 96.99 C202.59 67.54, 229.7 38.34, 259.2 1.65 M175.94 97.3 C199.04 69.86, 223.7 42.37, 258.51 0.68 M180.44 97.43 C201.52 73.67, 223.94 46.07, 263.49 0.79 M180.6 97.81 C204.66 67.9, 230.36 38.72, 265.05 -0.63 M186.56 95.94 C212.68 65.78, 243.06 35.22, 271.85 0.28 M184.83 97.1 C210.26 68.79, 234.97 39.35, 270.47 0.71 M190.09 99.08 C216.42 66.27, 246.18 32.17, 275.38 1.41 M191.82 96.75 C223.46 60.93, 254.86 25.37, 276.2 0.6 M194.31 95.6 C221.36 69.39, 250.41 39.29, 280.78 1.77 M196.84 97.58 C225.17 62.82, 255.67 29.8, 280.77 -0.27 M199.9 95.99 C221.11 75.9, 243.39 50.31, 287.82 -0.05 M201.24 97.44 C225.41 68.44, 251.47 40.18, 285.44 -0.3 M207.8 97.27 C234.46 68.6, 258.23 34.64, 290.21 -1.56 M207.64 97.35 C237.84 63.56, 266.09 28.41, 290.37 0.09 M210.71 97.85 C243.9 60.64, 278.78 22.22, 297.13 0.37 M212.51 96.53 C231.84 75.95, 250.79 53.76, 296.29 0.57 M215.97 98.29 C245.84 63.19, 276.64 31.99, 302.07 0.38 M217.44 96.59 C249.24 60.45, 282.21 23.17, 302.63 -0.02 M221.07 96.14 C250.71 65.59, 273.58 38.61, 308.35 1.39 M223.67 96.53 C256.65 58.92, 288.75 20.8, 307.18 0.45 M228.5 98.76 C245.68 75.06, 263.47 54.92, 314 1.47 M227.35 96.89 C255.47 64.79, 282.78 34.4, 312.28 0.47 M233.25 98.1 C253.3 73.52, 274.13 47.8, 317.23 -1.45 M234.15 96.8 C253.61 74.02, 273.81 50.98, 318.43 -1.03 M237.75 95.57 C264.68 64.48, 293.89 33.93, 316.11 7.4 M238.39 98.15 C255.99 77.91, 273.72 57.07, 317.22 6.49 M243.25 96.78 C260.95 74.66, 280.59 52.37, 317.1 10.97 M243.76 96.59 C264.5 73.79, 284.69 50.14, 318.08 11.91 M248.82 96.41 C269.49 72.26, 293.83 46.65, 319.5 17.62 M248.43 97.68 C272.36 69.87, 295.79 43.29, 317.96 17.84 M254.77 96.98 C270.99 77.55, 286.94 59.93, 318.95 24.14 M255.73 97.97 C268.72 82.47, 280.25 66.51, 317.03 25.03 M261.55 97.72 C276.13 78.32, 294.48 54.82, 318.2 31.3 M259.27 97.11 C277.91 77.87, 293.67 57.5, 318.68 30.11 M265.23 97.31 C282.57 75.62, 299.44 59.12, 318.05 36.68 M265.65 96.9 C277.06 84.81, 287.82 70.75, 318.63 35.77 M272.45 98.75 C282.2 81.33, 298.03 67.91, 316.1 42.21 M269.58 97.44 C286.04 80.16, 300.71 61.89, 317.02 42.55 M275.8 96.14 C290.16 80.39, 303.05 67.93, 317.02 47.24 M276.52 96.18 C287.8 83.03, 299 70.64, 318.74 49.19 M280.79 95.51 C288.16 88.06, 297.09 80.08, 316.73 55.63 M281.91 98.04 C288.55 89.14, 295.35 80.13, 316.98 56 M285.32 97.62 C297.54 81.31, 309.62 69.58, 319.21 61.24 M287.73 96.48 C293.62 87.01, 302.88 78.95, 318.14 59.68 M290.54 98.8 C297.51 88.6, 304.76 82.14, 317.4 66.86 M291.73 97.63 C301.42 87.46, 309.13 75.34, 318.01 66.44 M296.38 97.71 C301.65 89.85, 306.28 86.07, 318.03 73.64 M298.04 97.32 C305.61 88.26, 312.23 78.73, 316.82 72.78 M300.4 96.2 C305.33 92.69, 311.62 84.34, 317.79 80.25 M302.37 97.28 C307.05 90.71, 312.67 85.59, 318.58 78.92 M308.38 98.61 C310.05 93.82, 313.88 89.31, 317.64 84.24 M307.85 97 C310.67 92.28, 316.07 88.29, 317.68 85.18 M313.32 97.55 C314.94 94.89, 316.99 92.59, 317.87 91.47 M312.64 97.29 C314.54 95.72, 315.61 93.69, 318.38 91.25" stroke="#868e96" stroke-width="0.5" fill="none"></path><path d="M0.1 -0.75 C90.2 -0.48, 179.52 -1.54, 317.7 1.06 M-0.56 0.62 C70.35 0.43, 138.9 -0.19, 318.51 -0.59 M317.94 -0.72 C318.97 19.86, 318.52 41.6, 317.87 95.63 M318.3 -0.55 C317.96 35.19, 319.02 68.92, 317.41 96.41 M317.6 97.41 C208.08 99.73, 98.91 99.31, 1.22 97.59 M317.77 96.75 C254.56 96.28, 190.4 96.06, 0.63 96.59 M-1.91 95.92 C-1.48 65.28, 1.87 34.64, -1.07 0.11 M0.25 96.09 C-1.31 72.29, -0.55 46.36, 0.94 0.1" stroke="#495057" stroke-width="1" fill="none"></path></g><g transform="translate(31 45.5) rotate(0 138 13)"><text x="0" y="18" font-family="Virgil, Segoe UI Emoji" font-size="20px" fill="#000000" text-anchor="start" style="white-space: pre;" direction="ltr">Firmware (possibly with shim)</text></g><g stroke-linecap="round" transform="translate(221 180) rotate(0 121 61.5)"><path d="M0 0 C0 0, 0 0, 0 0 M0 0 C0 0, 0 0, 0 0 M-0.06 7.06 C1.54 4.38, 1.44 4.43, 5.48 0.06 M-0.49 6.75 C2.17 3.91, 4.07 1.89, 4.98 0.54 M0.76 13.37 C3.27 8.58, 5.63 6.51, 10.25 -0.57 M-0.08 12.84 C3.09 7.38, 6.84 3.19, 11.24 0.36 M-0.49 19.45 C5.16 14.77, 7.88 8.62, 16.69 -0.9 M0.41 17.53 C4.64 11.92, 10.07 6.47, 15.5 -0.48 M-1.3 23.92 C7.39 16.36, 16.08 4.33, 19.49 -0.11 M0.66 23.5 C6.44 16.62, 13.08 9.07, 22.11 0.43 M-1.61 29.42 C7.67 21.63, 14.64 13.73, 27.08 -0.47 M0.3 31.3 C10.07 17.52, 20.61 6.25, 25.54 0.06 M-1.62 37.48 C9.54 26.89, 15.26 18.7, 32.29 1.69 M-1.2 36.69 C7.76 25.77, 18.23 15.81, 31.2 -0.23 M0.67 41.93 C14.67 26.42, 28.05 11.76, 37.16 -1.35 M-0.11 43.21 C13.07 28.23, 27.39 12.93, 37.78 0.56 M1.65 47.99 C13.06 33.56, 25.25 22.33, 42.43 0.1 M-1.04 49.53 C9.25 39.18, 19.41 27.51, 42.9 -0.86 M0.87 53.77 C11.79 42.81, 22.32 28.53, 48.43 -0.01 M0.11 54.25 C17.2 34.54, 36.46 14.28, 47.28 1.01 M1.98 61.14 C12.99 42.08, 27.63 26.33, 52.52 1.29 M0.25 61.06 C19.2 38.72, 38.37 15.34, 52.37 0.57 M1.54 69.24 C21.57 44.72, 41.09 21.41, 58.08 -1.14 M0.14 67.52 C13.19 52.5, 25.6 39.36, 58.52 0.23 M1.2 73.59 C24.08 46.19, 47.64 20.2, 63.87 0.22 M-0.19 72.44 C19.62 51.84, 38.08 29.01, 64.64 0.47 M-2.05 79.15 C13.51 62.96, 29.65 44.38, 69.04 0.37 M-0.98 80.21 C26.88 47.87, 53.76 16.81, 68.34 0.94 M-1.13 83.83 C20.04 61.77, 36.89 39.98, 74.52 -1.39 M1.2 84.66 C25.43 56.83, 50.29 28.05, 73.63 0.57 M0.09 91.38 C16.95 70.22, 34.26 48.9, 79.97 1.38 M0.69 91.15 C22.05 68.69, 41.15 44.71, 79 0.68 M1.59 98.87 C25.89 62.51, 57.55 33.38, 85.23 -1 M0.67 98.37 C29.1 65.81, 57.28 32.2, 85.15 -0.99 M1.35 101.81 C29.41 69.08, 61.06 36.46, 91.23 0.56 M-0.34 102.76 C25.76 71.57, 53.29 40.51, 89.11 0.87 M-0.33 109.22 C38.32 69.13, 74.3 26.58, 97.46 -1.32 M0.88 109.78 C26.33 80.81, 50.48 50.88, 95.9 -0.77 M-0.17 117.12 C26.96 83.29, 52.53 54.76, 98.89 0.35 M-0.68 114.82 C24.3 88.01, 48.11 59.86, 100.71 -0.2 M1.16 123.45 C31.6 87.05, 63.27 48.53, 107.41 -0.28 M-0.14 122.23 C30.76 86.87, 61.71 53.13, 106.49 -0.91 M2.32 126.51 C41.77 79.55, 81.52 36.82, 112.77 0.96 M2.92 125.21 C37.23 84.91, 71.33 44.18, 112.21 -0.41 M8.36 126.11 C40.57 87.52, 75.39 46.11, 115.34 -0.25 M8.6 125.12 C30.88 97.44, 56.68 68.36, 115.75 0.52 M12.9 124.66 C49.94 79.83, 89.02 35.27, 122.38 -1.6 M13.19 125.89 C38.74 93.76, 66.54 63.03, 121.41 -0.77 M18.17 124.61 C39.12 99.77, 62.58 73.36, 126.19 -1.1 M18.35 125.78 C54.43 85.51, 87.83 47.33, 126.35 -0.44 M23.31 124.4 C56.34 84.95, 93.63 46.71, 130.96 -1.54 M23.67 124.53 C50.44 94.5, 76.97 63.06, 132.52 -0.41 M27.83 125.13 C60.75 87.13, 94.68 50.9, 135.65 -1.65 M29.35 124.41 C57.8 91.23, 87.05 59.74, 137.91 -0.13 M34.53 123.53 C77.76 75, 120.82 23.78, 141.47 -1.3 M33.32 124.35 C74.21 77.08, 117.71 30.33, 143.13 0.38 M40.93 126.61 C66.58 97.11, 88.52 67.77, 146.8 -0.69 M39.9 125.03 C77.37 80.53, 116.59 35.22, 148.6 0.73 M46.24 124.63 C71.9 95.33, 95.81 65.14, 154.6 -1.54 M44.98 124.94 C72.28 94.62, 101.15 62.72, 153.2 -0.83 M50.1 126.52 C71.75 100.07, 95.92 73.34, 159.4 1.75 M49.99 126.28 C90.74 78.91, 132.02 31.18, 159.44 0.76 M54.85 125.06 C90.75 81.57, 130.45 37.56, 162.72 0.87 M56.37 125.23 C86.07 86.45, 119.44 50.06, 164.11 0.39 M61.69 123.86 C98.03 82.83, 135.99 38.61, 167.98 -1.54 M60.99 125.39 C92.83 87.97, 127.09 49.43, 169.4 0.95 M67.5 126.97 C105.69 80.34, 143.25 37.71, 175.97 -1.15 M67.14 124.53 C97.58 90.62, 128.48 56.62, 175.61 0.34 M69.77 125.67 C108.69 80.39, 149.97 36.81, 179.76 0.97 M70.7 125.74 C111.79 78.1, 152.12 30.37, 180.29 -0.36 M76.04 123.28 C114.3 79.02, 155.72 34.98, 184.17 1.08 M75.8 125.49 C99.16 97.67, 123.7 70.07, 184.87 0.16 M80.81 126 C105.97 99.87, 126.41 72.21, 192.68 1.62 M80.96 124.77 C108.83 95.48, 132.93 65.87, 189.84 -0.45 M87.03 123.7 C125.66 77.57, 163.24 33.98, 194.87 -1.97 M86.75 125.13 C115.37 92.99, 143.06 60.44, 195.4 -1.13 M90.98 124.72 C124.76 90.9, 153.87 57.86, 201.39 -0.47 M91.98 125.81 C113.64 98.67, 136.02 72.75, 200.65 0.73 M99.76 124.71 C121.24 96.21, 145.06 70.76, 207.35 -0.05 M97.3 125.82 C135.55 79.11, 176.93 33.94, 206.16 0.33 M104.18 125.43 C128.03 96.34, 152.6 68.13, 211.29 -1.43 M103.39 125.05 C125.86 99.83, 148.22 73.79, 211.22 -0.39 M108.23 123.58 C147.86 82.09, 185.47 39.75, 218.6 -1.11 M108.62 124.31 C137.69 92.66, 167.08 58.44, 218.45 0.28 M114.02 125.56 C150.21 82.73, 187.42 42.25, 224.47 1.44 M113.19 124.52 C139.24 96.65, 163.36 69.08, 222.96 -0.03 M119.18 124.36 C155.83 79.93, 194.38 39.28, 229.32 -1.36 M118.81 124.7 C153.68 85.5, 187.91 45.9, 229 -0.7 M125.84 126.3 C156.07 87.31, 190.87 49.16, 233.74 -0.42 M124.8 125.13 C152.54 94.1, 178.22 64.21, 233.14 -0.03 M130.04 123.88 C153.93 96.8, 177.97 66.73, 237.28 1.57 M129.82 125.43 C173.02 75.32, 214.17 27.02, 238.24 0.6 M134.68 126.6 C165.34 87.88, 197.62 52.86, 243.99 -0.01 M133.99 125.64 C169.44 83.54, 205.17 43.14, 243.27 -0.15 M138.97 125.75 C180.63 81.17, 218.99 35.08, 244.05 6.34 M140.53 124.32 C163.59 99.52, 186.14 73.79, 242.08 6.76 M147.33 125.23 C175.08 89.75, 205.88 52.84, 242.3 12.24 M145.95 125.67 C180.28 87.31, 214.44 47.55, 244.24 12.04 M150.85 126.37 C186.44 84.61, 218.27 48.04, 242.13 19.34 M151.68 125.55 C176.4 94.68, 200.61 66.02, 242.06 18.21 M156.26 126.73 C189.06 85.85, 220.82 51.52, 242.81 23.58 M156.25 124.69 C174.56 103.74, 193.39 80.41, 242.19 25.2 M162.64 125.66 C192.23 91.03, 222.17 51.94, 243.71 30.24 M160.26 125.41 C179.68 103.63, 198.42 82.74, 243.05 31.67 M165.69 123.39 C197.24 91.92, 223.6 61.96, 242.53 39.07 M165.85 125.05 C190.37 101.24, 211.59 74.54, 243.27 37.4 M171.95 126.08 C194.65 95.35, 221.48 67.75, 242.09 43.76 M171.11 126.28 C195.44 98.17, 218.29 70.59, 243.71 43.05 M177.55 125.33 C191.8 109.17, 205.55 94.35, 241.23 48.83 M178.1 124.94 C200.66 97.43, 224.91 69.86, 242.57 50.34 M183.17 127.1 C199.57 108.23, 211.06 92.44, 241.63 57.15 M182 126.16 C196.6 109.61, 211.6 92.48, 243.44 55.83 M189.48 126.42 C202.21 110.92, 216.12 93.33, 242.02 63.01 M187.76 125.42 C199.9 111.16, 213.56 95.49, 243.7 61.31 M192.05 124.26 C210.56 103.94, 231.05 84.23, 242.38 67.19 M193.25 124.68 C211.97 103.16, 230.48 82.7, 241.99 67.11 M196.84 126.32 C208.06 113.94, 220.85 99.52, 244.76 74.52 M197.94 125.41 C215.22 105.94, 232.98 84.84, 243.19 72.97 M203.07 123.85 C214.14 114.23, 225.93 99.96, 242.16 80.7 M204.05 124.79 C217.22 109.43, 229.69 94.3, 242.56 79.12 M210.72 124.46 C219.36 115.24, 228.19 102.35, 243.36 85.83 M209.18 124.69 C218.92 114.14, 230.23 102, 242.79 87.1 M215.42 124.94 C219.24 116.99, 228.15 110.97, 245.12 93.52 M213.51 125.84 C224.53 113.21, 234.85 103.56, 243.37 91.16 M219.92 126.07 C228.71 115.38, 236.09 104.17, 242.41 99.92 M220.4 124.88 C227.74 117.14, 234 108.26, 243.1 98.57 M225.02 125.41 C227.15 121.65, 232.84 116.62, 243.18 105.28 M225.6 124.5 C231.93 118.16, 238.53 110.08, 244.04 103.43 M229.05 124.19 C234.48 120.49, 239.03 115.14, 243.27 110.8 M229.92 124.51 C235.59 118.51, 240.72 113.68, 242.68 110.85 M234.98 124.53 C236.98 124.35, 238.31 121.81, 241.97 117.63 M235.93 125.6 C236.65 124.07, 238.8 121.67, 242.31 116.85" stroke="#fab005" stroke-width="0.5" fill="none"></path><path d="M-0.89 0.09 C66.05 0.85, 133.46 0.31, 240.48 -1.24 M0.78 0.08 C82.16 0.57, 165.86 -0.07, 242.49 -0.63 M241.54 -1.4 C242.31 36.8, 243.52 72.77, 240.8 123.86 M242.44 0.26 C240.73 34.38, 241.06 67.08, 241.98 122.34 M242.11 124.22 C150.31 122.13, 61.41 121.79, 0.48 121.37 M242.75 122.68 C183.89 124.65, 125.04 123.83, -0.69 123.53 M1.92 122.66 C-0.43 74.78, 1.13 28.93, 1.25 -1.34 M0.82 123.9 C0.55 75.33, 1.62 28.63, 0.32 0.31" stroke="#000000" stroke-width="1" fill="none"></path></g><g stroke-linecap="round" transform="translate(468 182) rotate(0 139 60.5)"><path d="M0 0 C0 0, 0 0, 0 0 M0 0 C0 0, 0 0, 0 0 M-0.7 7.01 C1.29 4.79, 1.65 3.51, 4.84 0.77 M-0.39 6.61 C1.35 4.42, 3.2 2.43, 5.2 0 M1.23 11.85 C1.18 10.74, 5.05 5.9, 9.38 -0.17 M-0.46 11.33 C2.75 8.87, 6.03 5.79, 10.95 -0.5 M-1.75 20.14 C5.91 12.6, 9.2 6.95, 14 -0.74 M0.54 18.85 C3.97 14.34, 9.68 8.77, 15.91 1.15 M0.2 22.66 C6 16.35, 13.59 8.84, 19.9 0.53 M0.62 24.28 C9.32 14.63, 16.66 5.67, 20.32 -0.25 M-1.46 29.09 C5.93 24.98, 12.53 14.96, 26.78 -0.3 M0.38 30.62 C8.19 20.79, 17.97 9.33, 25.99 0.98 M1.09 38.67 C8.79 26.25, 18.66 18.29, 33.67 -1.03 M0.48 36.83 C12.27 21.82, 23.7 7.6, 30.97 0.51 M0.52 43.28 C7.5 31.09, 19.74 20.12, 37.47 -0.53 M1.01 42.98 C10.18 31.44, 20.59 18.73, 36.71 -0.05 M0.6 48.47 C10.44 37.63, 18.63 29.23, 44.49 0.04 M-0.11 48.6 C10.09 39.44, 18.57 29.06, 42.76 -0.04 M-1.06 53 C15.1 40.19, 28.92 21.5, 49.3 2.1 M0.88 54.53 C17.52 32.78, 36.2 13.5, 47.9 0.39 M1.94 61.73 C21.34 37.52, 40.94 12.83, 54.21 0.42 M0.72 61.01 C15.98 42.66, 31.62 23.89, 52.82 -0.74 M-0.41 69.07 C19.58 44.23, 38.56 22.71, 56.2 -0.06 M-0.84 67.5 C15.14 50.47, 29.61 32.16, 57.27 1 M-0.33 72.15 C16.94 55.28, 31.86 39.33, 62.37 -1.41 M-0.62 73.06 C24.06 45.89, 48.23 18.89, 64.7 -0.58 M-0.03 77.83 C24.04 51.04, 46.44 24.46, 68.84 0.09 M-0.6 79.69 C18.23 59.62, 34.49 39.49, 69.44 -0.14 M1.08 84.24 C29.69 53.03, 59.07 21.17, 76.24 0.79 M1.16 85.13 C17.51 65.31, 34.26 46.44, 75.33 0.3 M-0.68 91.65 C28.1 56.25, 58.47 22.67, 80.6 -1.55 M0.56 92.04 C21.12 66.74, 42.72 43.32, 78.91 -0.6 M-0.49 96 C22.97 74.99, 43.2 46.72, 84.82 -0.94 M0.59 98.73 C29.86 61.52, 60.7 26.51, 86.03 -0.37 M-0.76 103.94 C27.75 70.2, 57.46 37.9, 89.58 1.69 M0.65 102.6 C27.01 73.47, 52.3 44.83, 89.06 -0.62 M-0.99 109.97 C23.68 81.56, 50.44 51.57, 96.81 1.22 M-0.92 110.43 C32.77 71.03, 65.39 32.91, 95.51 0 M1.08 115.9 C29.49 81.71, 60.62 45.9, 100.59 1.26 M1.07 116.26 C32.92 78.86, 64.92 42.95, 101.19 -0.04 M1.02 123 C39.78 74.63, 82.93 26.39, 106.64 0.86 M0.58 120.7 C26.3 89.7, 54.4 59.24, 106.88 -0.13 M5.13 120.46 C30.07 93.36, 53.74 64.61, 111.18 -0.59 M4.86 121.75 C27.5 96.2, 50.98 71.97, 111.47 0.64 M12.87 120.12 C35.23 89.34, 62.42 62.32, 115.79 0.12 M11.14 120.77 C32.81 95.39, 55.44 68.86, 115.97 1.29 M18.17 120.37 C53 78.59, 93.87 33.63, 121.59 -0.85 M17.19 120.7 C39.26 93.62, 64.38 67.03, 121.95 -0.72 M21.62 121.05 C62.03 73.29, 104.36 25.57, 125.45 0.64 M21.68 120.15 C51.92 85.02, 82.78 50.9, 126.97 -0.08 M27.43 122.21 C56.36 88.8, 86.21 54.46, 132.8 -1.72 M26.39 120.6 C57.55 86.24, 90.27 48.52, 131.6 -0.89 M32.86 120.96 C57.12 92.71, 76.91 68.04, 138.55 2.12 M31.84 120.37 C70.76 77.63, 110.66 33.36, 137.52 0.54 M37.13 122.28 C68.16 84.18, 98.15 50.41, 144.51 -0.62 M37.43 121.81 C74.84 77.55, 113.26 33.35, 143.25 -0.3 M42.25 120.56 C66.64 89.51, 94.38 62.31, 148.38 1.28 M42.48 122.08 C73.21 86.94, 103.15 50.75, 148.27 1.03 M49.2 122.68 C78.6 88.04, 108.83 52.89, 153.13 -0.19 M47.65 120.53 C72.37 93.92, 96.2 67.64, 154.65 -0.01 M52.15 121.09 C81.88 91.56, 108.9 58.37, 159.97 -1.38 M53.36 121.02 C85.02 83.86, 118.94 45.28, 159.27 0.15 M57.27 121.3 C85.47 93.14, 107.42 62.9, 165.78 1.72 M59.8 121.8 C88.27 87.75, 118.21 52.85, 165.42 -0.72 M65.64 122.8 C101.28 80.4, 136.87 37.29, 168.05 0.42 M64.12 121.56 C90.68 91.65, 116.69 61.48, 168.98 0.49 M68.71 121.79 C100.83 85.02, 134.29 46.26, 174.31 -1.97 M69.02 120.55 C94.5 92.78, 118.32 67.04, 174.08 0.24 M75.21 120.01 C102.85 86.73, 128.98 56.35, 179.09 0.76 M73.97 122.67 C109.8 81.52, 143.52 41.63, 179.23 -0.48 M78.61 119.58 C118.23 79.03, 159.52 35.39, 185.3 -1.55 M79.82 120.55 C113.5 83.08, 147.43 45.92, 185.03 -0.12 M84.05 119.79 C116.21 82.57, 149.47 43.64, 189.26 -0.53 M86 121.68 C120.78 79.61, 157.79 39.86, 190.25 0.56 M91.77 119.91 C117.09 91.39, 142.84 63.91, 198.03 -0.54 M91.13 121.44 C124.66 83.69, 158.59 45.12, 195.57 0.57 M96.07 120.01 C119.17 94.03, 140.54 68.49, 202.45 0.19 M96.2 121.28 C125.19 86.81, 155.47 52.85, 201.66 -0.2 M100.71 119.77 C129.24 89.27, 157.09 55.94, 206.51 -1.67 M101.24 121.72 C139.14 76.03, 176.88 32.27, 206.9 -0.93 M105.9 123.3 C129.19 96.77, 149.94 71.27, 212.3 0.32 M106.45 122.52 C140.34 82.16, 172.11 45.42, 211.47 -0.73 M111.67 121.95 C152.56 75.18, 194.73 27.9, 217.45 -0.89 M112.86 121.73 C142.18 86.76, 171.79 52.88, 217.08 -0.55 M116.88 123.1 C140.32 93.85, 164.93 66.66, 224.11 1.05 M117.51 121.81 C137.74 96.33, 158.54 72.77, 223.07 -0.12 M122.61 121.01 C162.68 73.61, 203.26 30.66, 228.31 -1.37 M122.08 120.69 C153.95 86.37, 184.01 49.91, 228.1 0.18 M127.1 121.6 C161.55 84.63, 195.4 47.68, 232.96 1.35 M128.04 121.91 C157.31 87.43, 188.07 52.92, 232.27 0.39 M133.2 121.29 C159.76 91.46, 187.51 57.73, 236.59 1.26 M133.36 121.67 C163.33 84.89, 195.08 48.74, 238.15 -0.17 M139.32 119.8 C172.36 81.69, 209.67 43.16, 245.6 -0.01 M137.59 120.96 C169.24 85.4, 200.23 48.73, 244.22 0.42 M142.84 122.94 C175.61 82.35, 211.97 40.65, 248.47 1.88 M144.58 120.61 C183.98 76.14, 222.98 31.84, 249.3 1.06 M147.07 119.46 C180.85 85.89, 216.43 48.3, 254.54 1.48 M149.6 121.44 C185.39 78.26, 223.18 36.85, 254.52 -0.56 M152.66 119.85 C178.7 94.24, 205.92 62.95, 260.91 0.42 M154 121.3 C183.98 85.56, 216.05 50.38, 258.53 0.16 M160.56 121.13 C193.87 84.91, 224.21 43.38, 263.97 -1.85 M160.39 121.21 C198.14 79.02, 233.8 35.35, 264.12 -0.2 M162.81 122.46 C203.92 75.94, 246.88 28.22, 270.22 0.83 M164.62 121.15 C188.72 95.23, 212.29 67.71, 269.39 1.03 M168.73 122.15 C205.76 79, 243.64 39.66, 275.82 0.09 M170.19 120.45 C210.01 74.97, 250.94 28.54, 276.38 -0.31 M173.17 120.75 C208.94 83.13, 237.82 49.24, 280.13 3.37 M175.77 121.14 C216.45 74.78, 256.28 27.79, 278.97 2.42 M181.26 122.61 C201.53 95.3, 222.51 71.49, 281.19 8.72 M180.11 120.75 C212.81 83.19, 244.78 47.43, 279.47 7.72 M185.35 122.72 C207.62 95.43, 230.76 67.05, 278.52 12.6 M186.25 121.42 C207.93 96.06, 230.33 70.49, 279.71 13.01 M190.51 119.43 C220.68 84.65, 253.03 50.49, 278.06 20.69 M191.15 122.01 C210.71 99.41, 230.48 76.23, 279.16 19.79 M195.35 121.39 C215.49 96.36, 237.66 71.15, 279.04 24.26 M195.86 121.2 C219.28 95.24, 242.2 68.45, 280.02 25.2 M201.58 120.27 C225.01 93.07, 252.06 64.34, 280.79 31.66 M201.19 121.54 C228.03 90.33, 254.39 60.37, 279.25 31.89 M206.87 121.6 C225.42 99.3, 243.79 78.9, 280.9 37.43 M207.83 122.59 C222.88 104.74, 236.45 86.45, 278.98 38.32 M214.31 121.58 C231.56 99.18, 252.49 72.72, 279.49 45.35 M212.03 120.97 C233.2 98.86, 251.51 75.57, 279.96 44.16 M217.34 121.92 C237.86 96.57, 257.98 76.34, 279.99 49.98 M217.76 121.51 C231.23 106.98, 244.1 90.49, 280.58 49.07 M225.21 122.61 C237.54 102.17, 256.04 85.67, 278.04 55.51 M222.34 121.3 C241.8 100.51, 259.46 78.82, 278.96 55.84 M227.9 120.75 C245.21 101.68, 260.96 85.93, 278.3 61.29 M228.63 120.79 C242.33 104.79, 256.05 89.5, 280.03 63.24 M233.55 119.37 C242.81 109.59, 253.73 99.32, 278.67 68.92 M234.67 121.9 C243.17 110.87, 251.84 99.71, 278.93 69.3 M237.42 122.24 C253.11 101.85, 268.69 86.1, 280.49 75.29 M239.83 121.09 C247.89 109.01, 259.41 98.35, 279.43 73.73 M243.3 122.66 C252.69 109.68, 262.29 100.54, 279.34 80.15 M244.49 121.48 C257.35 107.61, 268.23 91.83, 279.96 79.73 M248.48 122.32 C255.81 111.95, 262.58 105.71, 279.97 86.94 M250.15 121.94 C261.46 108.74, 271.74 95.01, 278.76 86.08 M253.16 120.06 C260.77 113.45, 269.74 102.02, 279.08 94.3 M255.13 121.14 C262.35 111.5, 270.6 103.37, 279.87 92.97 M261.39 122.73 C265.4 114.51, 272.11 106.67, 279.53 97.21 M260.73 120.71 C266.75 111.9, 276.01 104.02, 279.58 98.4 M266.53 121.94 C270.83 115.03, 276.16 109.01, 278.58 105.99 M264.84 121.3 C269.77 117.17, 272.63 111.88, 279.85 105.45 M271.74 121.09 C275.27 117.18, 278.73 113.24, 280.45 111.58 M270.33 121.59 C274.19 117.09, 278.16 113.69, 279.51 111.08 M276.09 121.3 C276.85 120.67, 277.97 119.74, 279.27 117.44 M275.55 121.7 C277.41 120.11, 278.32 118.38, 279.63 117.38" stroke="#fab005" stroke-width="0.5" fill="none"></path><path d="M0.16 -0.03 C62.37 1.96, 127.66 0.3, 278.1 1.13 M-0.23 0.22 C58.28 -0.3, 117.94 0.71, 278.69 -0.29 M276.45 -1.67 C279.54 43.83, 277.37 85.44, 279.92 120.66 M277.67 0.62 C276.41 31.19, 276.5 60.75, 278.82 121.9 M277.88 121.5 C199.48 124.39, 119.1 122.79, 0.77 120.02 M278.64 121.43 C193.67 120.06, 107.63 120.8, -0.69 121.74 M-1.22 122.39 C-1.89 82.7, -2.68 48.43, 0.5 1.66 M0.78 121.61 C0.71 76.11, 0.24 28.73, -0.56 0.87" stroke="#000000" stroke-width="1" fill="none"></path></g><g stroke-linecap="round" transform="translate(1219.33984375 479) rotate(0 145 69)"><path d="M0 0 C0 0, 0 0, 0 0 M0 0 C0 0, 0 0, 0 0 M-0.37 5.77 C1.57 4.16, 2.92 1.84, 4.66 0.81 M0.08 6.27 C0.8 5.14, 2.26 3.98, 4.89 0.42 M-1.07 10.56 C4.9 7.17, 5.6 4.41, 11.85 0.31 M0.45 11.84 C2.5 9.77, 4.73 6.24, 11.12 0.01 M-0.71 19.91 C5.26 15.32, 9.28 10.23, 15.26 2.1 M0.66 17.86 C6.64 12.27, 11.79 4.69, 14.86 -0.32 M-0.74 25.8 C4.98 19.39, 9.86 12.6, 20.43 1.54 M0.15 25.08 C4.23 19.29, 10.63 12.57, 21.99 -0.35 M-1.7 31.17 C10.01 21.64, 16.38 12.84, 25.84 0.88 M-0.85 29.82 C8.9 18.79, 19.7 7.82, 26.89 0.35 M-0.51 37.76 C11.21 21.5, 22.46 10.31, 33 1.63 M0.57 37.2 C6.12 29.71, 12.37 20.97, 31.02 -0.16 M2.09 42.14 C15.29 29, 27.51 11.76, 38.24 -1.17 M0.13 42.75 C12.77 28.4, 25.56 13.17, 36.9 0.22 M0.36 50.2 C9.81 36.58, 23.36 25.65, 40.85 1.28 M-0.49 49.04 C10.33 37.18, 19.97 26.67, 43.44 -0.92 M-1 54.05 C14.72 35.84, 30.95 20.02, 46.59 1.68 M1.04 53.85 C15.62 36.59, 31.11 19.3, 47.81 -0.14 M0.7 62.23 C21.46 37.52, 39.12 15.34, 51.77 0.83 M-0.46 60.6 C11.04 46.66, 24.33 33.93, 52.75 -0.72 M1.53 68.61 C12.74 51.33, 28.04 34.66, 58.8 1.85 M-0.98 66.46 C23.3 41.16, 45.77 13.15, 58.43 -0.25 M1.8 74.9 C25.41 44.23, 47.88 15.77, 64.29 -1.67 M-0.22 73.04 C25.63 45.21, 50.49 16.03, 63.79 0.74 M-1.09 79 C25.24 50.88, 48.47 23.91, 70.56 0.53 M0.55 80.05 C14.39 63.87, 29.72 45.93, 68.4 -0.76 M0.73 86 C24.2 53.78, 52.78 23.36, 73.74 -0.45 M0.18 84.42 C23.5 57.65, 47.05 30, 73.77 -0.88 M-0.81 92.36 C29.78 57.23, 59.92 23.7, 79.33 1.58 M0.48 91.75 C17.8 69.57, 35.61 49.96, 79.23 -0.42 M-0.32 96.8 C26.19 69.96, 49.68 39.63, 86.25 -0.02 M-0.09 97.42 C24.1 70.61, 48.33 42.8, 85.25 0.51 M1.87 104.81 C33.27 65.13, 68.84 25.16, 90.38 1.6 M-0.3 104.3 C22.28 76.9, 44.6 50.75, 89.3 0.93 M-1.42 111.02 C27.32 78.23, 51.94 48.13, 96.69 -1.16 M-1.03 109.37 C32.08 71.83, 65.42 34.32, 95.16 0.37 M-0.8 116.18 C36.36 75.07, 71.02 30.62, 98.74 -0.08 M-0.56 115.87 C34.34 76.46, 68.05 36.88, 100.82 -0.69 M1.2 121.34 C28.48 89.92, 56.49 53.56, 106.75 1.04 M-0.76 121.74 C27.72 91.97, 53.82 59.05, 105.78 0.54 M1.58 128.77 C33.1 91.41, 64.64 53.65, 111.21 0.57 M-0.36 127.74 C31.86 92.98, 60.44 57.35, 110.9 -0.36 M-0.29 132.43 C39.99 90.81, 77.58 45.27, 118.22 -0.02 M0.13 134.14 C42.81 84.97, 85.06 35.47, 117.1 1.03 M-0.53 136.85 C32.21 108.31, 57.79 77.11, 120.4 -1.7 M1.89 138.84 C33.72 98.26, 67.21 59.74, 122.47 0.73 M6 140.87 C52.88 86.3, 97.85 35.42, 125.66 0.53 M6.8 139.28 C43 95.54, 81.93 51.08, 126.43 -0.03 M10.7 139.1 C39.23 109.04, 62.24 78.16, 130.68 0.59 M11.71 139.17 C51.51 93.14, 90.24 48.95, 133.35 0.3 M16.51 140.28 C46.54 104.19, 78.96 69.15, 138.43 1.52 M16.05 139.06 C55.71 94.86, 92.63 52.08, 137.48 1.12 M21.46 136.79 C68.03 85.74, 110.84 35.97, 144.22 1.64 M22.59 139.02 C47.05 110.65, 71.86 80.29, 143.21 -0.06 M26.17 138.76 C57.44 103.89, 85.52 73.12, 149.32 -1.24 M27.27 139.05 C59.47 100.1, 94.6 59.73, 147.97 -0.09 M33.94 138.35 C59.98 110.57, 86.19 79.09, 154.95 0.35 M32.57 138.49 C68.87 99.65, 102.19 60.46, 154.56 0.13 M38.31 139.85 C82.26 86.98, 127.91 35.61, 159.91 -0.24 M37.31 138.42 C76.55 96.76, 112.58 54.85, 157.98 1.14 M43.1 139.92 C88.91 89.54, 129.37 40.1, 162.59 -1.65 M44.04 139.07 C82.48 93.19, 123.1 49.7, 163.79 -0.75 M50.01 137.79 C81.83 99.52, 115.74 60.93, 170.57 1.76 M48.86 138.23 C95.93 85.02, 143.18 29.82, 168.95 0.01 M54.66 139.38 C99.8 87.02, 141.26 35.77, 174.65 -2 M54.76 138.65 C85.2 105.4, 115.57 69.55, 174.16 0.56 M58.16 139.56 C102.81 88.01, 148.27 36.62, 178.44 1.72 M59.48 138.44 C95.58 96.7, 132.99 53.46, 180.69 1.1 M63.15 138.3 C105.96 94.14, 140.71 51.15, 184.41 0.36 M64.83 138.49 C90.7 107.8, 118.28 75.25, 184.76 -0.77 M69.41 138.86 C101.27 101.41, 132.95 63.78, 191.45 -1.67 M70.58 138.89 C110.49 94.63, 149.21 49.22, 190.34 -0.6 M73.87 139.99 C107.37 101.51, 142.53 65.71, 196.94 -0.79 M75.73 138.28 C118.29 90.06, 160.68 42.11, 195.55 -0.7 M82.21 138.1 C123.12 93.11, 162.9 46.78, 202.3 1.97 M80.43 138.32 C116.6 99.02, 152.85 56.43, 201.44 -0.73 M84.24 140.22 C130.09 88.12, 177.23 36.11, 207.07 -0.93 M84.63 139.81 C128 89.02, 172.15 38, 206.37 -1.29 M92.77 138.41 C135.49 87.95, 179.38 36.7, 210.47 0.76 M91.19 139.36 C135.54 87.66, 180 37.43, 212.85 -0.52 M96.44 138.22 C135.77 90.57, 179.19 43.97, 217.45 1.16 M96.04 139.03 C137.07 92.26, 177.94 44.76, 217.88 0.29 M101.1 137.63 C139.26 96.16, 176.79 52.2, 224.24 -1.47 M101.84 139.51 C136.21 99.73, 170.92 60.45, 221.81 0.16 M107.44 139.21 C131.42 112.75, 154.37 82.68, 228.47 1.42 M106.84 139.53 C152.95 84.31, 199.53 30.36, 228.64 -1.25 M112.98 140.33 C151.53 93.91, 189.25 50.09, 234.66 0.84 M113.23 138.2 C142.2 104.23, 172.13 69.16, 232.92 -0.14 M117.68 137.36 C158.29 87.37, 200.37 38.05, 239.67 1.26 M117.95 138.52 C163.43 86.31, 209.12 31.84, 237.39 0.48 M121.98 139.81 C157.65 95.94, 194.25 55.41, 245.55 0.96 M123.08 139.71 C156.1 98.15, 192.12 58.04, 243.14 0.51 M128.37 138.57 C163.52 101.09, 197.5 61.63, 250.34 -1.44 M128.64 138.65 C152.58 113.24, 177.25 85.13, 248.71 -0.56 M135.44 140.07 C160.61 108.23, 186.26 80.48, 255.52 1.88 M132.96 138.24 C170.33 96.42, 206.37 54.34, 254.78 0.44 M139.48 138.46 C170.44 100.42, 203.82 64.99, 257.56 2.17 M139.53 138.9 C174.21 99.28, 207 58.96, 260.04 0.81 M144.49 137.82 C183.4 92.87, 219.29 52.02, 263.98 -1.7 M145.3 138.86 C189.44 85.24, 235.81 31.89, 264.51 -0.65 M147.79 140.35 C179.45 104.04, 211.69 68.35, 268.89 -1.08 M149.6 139.68 C186.36 94.68, 222.58 52.96, 269.38 0.84 M154.04 140.52 C197.68 90.51, 238.94 42.71, 277.09 -1.35 M154.41 138.55 C193.26 97.31, 229.59 53.69, 276.37 -0.65 M160.85 137.3 C208.57 84.69, 252.54 29.18, 279.62 0.32 M159.22 139.79 C195.42 99.01, 229.98 60.53, 281.57 0.73 M164.78 140.33 C206.78 91.47, 246.02 45.21, 285.81 -0.92 M165.41 139.17 C195.87 105.21, 224.61 72.07, 286.76 -0.06 M170.98 138.09 C206.88 95.41, 245.58 49.86, 290.2 1.41 M171.08 139.39 C200.32 103.61, 230.75 69.09, 290.64 0.28 M175.18 140.12 C220.56 90.24, 261.06 42.86, 289.97 8.25 M175.34 138.46 C204.56 106.37, 234.54 72.82, 291.51 5.78 M181.3 137.19 C210.09 109.21, 236.49 74.58, 292.32 11.71 M181.24 139.08 C204.18 110.75, 228.09 84.96, 290.97 12.02 M187.49 139.49 C214.12 105.01, 244.85 71.89, 288.75 18.99 M186.05 139.07 C226.26 93.49, 265.44 48.65, 291.41 19.39 M191.7 140.82 C217.46 110.2, 247.42 75.17, 290.49 25.6 M192.14 138.79 C232.8 93.42, 271.22 49.4, 291.81 24.47 M197.75 136.77 C229.31 104.02, 257.72 70.25, 289.35 31.79 M197.28 139.53 C231.12 101.01, 264.49 62.6, 289.82 31.66 M200.86 140.91 C229.1 107.53, 253.29 76.74, 291.13 37.48 M201.55 138.9 C235.05 102.53, 268.06 64.76, 291.44 36.37 M209.11 139.74 C233.82 109.14, 257.59 81.56, 289.19 42.45 M206.96 140.02 C234.08 109.31, 260.05 77, 289.92 44.39 M212.23 137.1 C237.72 112.59, 259.78 86.74, 289.83 49.26 M213.62 139.14 C238.97 110.11, 263.95 81.91, 291.35 49.09 M216.49 140.65 C234.84 120.78, 250.15 103.84, 289.14 55.7 M218.84 138.34 C237.36 116.86, 258.45 93.67, 290.89 55.03 M224.05 138.76 C239.02 121.34, 251.31 105.31, 291.88 61.25 M223.85 139.65 C239.64 121.1, 254.19 103.68, 289.83 62.66 M228.59 138.74 C245.46 122.11, 261.89 101.83, 290.84 67.99 M229.59 139.46 C243.42 124.18, 256.21 106.57, 290.3 68.42 M235.33 138.97 C253.4 120.41, 269.2 100.53, 290.43 74.8 M234.11 137.94 C248.08 121.25, 263.56 105.87, 291.09 73.22 M240.6 139.18 C252.44 127.25, 261.76 114.33, 290.06 82.27 M240.37 139.46 C252.86 122.71, 266.58 107.45, 290.39 80.53 M243.88 140.53 C264.8 118.87, 280.16 97.44, 291.02 87.18 M245.61 137.95 C261.03 120.53, 275.53 104.45, 290.84 85.07 M251.43 139.89 C259.71 128.35, 269.52 117.16, 289.31 90.91 M249.19 139.34 C260.72 126.09, 271.61 113.64, 289.74 92.48 M256.28 137.97 C264.74 128.16, 272.44 121.01, 293.02 98.39 M255.94 138.96 C263.91 129.85, 272.23 120.75, 290.66 98.41 M261.82 137.51 C268.36 130.49, 277.79 117.03, 291.93 106.29 M259.96 139.96 C267.43 132.1, 274.54 123.74, 290.33 104.02 M265.89 139.51 C272.03 132.03, 279.87 125.55, 290.89 109.93 M266.03 138.68 C271.74 131.6, 277.11 126.35, 290.31 111.07 M272.27 137.39 C275.86 130.77, 282.64 125.64, 290.68 115.74 M271.41 139.1 C276.17 133.04, 282.97 126.53, 291.13 115.57 M278.84 137.13 C281.27 133.59, 288.07 129.4, 290.85 123.72 M277.19 138.2 C280.25 133.91, 285.34 130.21, 291.4 122.51 M281.32 139.42 C283.63 136.21, 286.7 133.21, 289.72 128.37 M282.08 138.61 C284.51 136.61, 287.61 132.96, 290.68 128.09 M287.69 139.13 C288.99 137.39, 289.88 135.65, 290.37 135.34 M287.69 138.75 C288.26 137.34, 289.31 136.44, 290.74 135.01" stroke="#fa5252" stroke-width="0.5" fill="none"></path><path d="M0.03 1.15 C109.2 -3.01, 221.89 -2.82, 288.7 -1.31 M0.59 -0.67 C94.61 -1.21, 190.79 -2.09, 290.72 -0.63 M291.49 -0.61 C289.82 34.8, 289.2 68.05, 288.17 139.86 M290.66 -0.59 C291.31 40.67, 290.3 81.62, 290.47 137.98 M288.72 137.17 C193.27 139.33, 99.87 140.9, -0.67 137.31 M290.44 138.34 C215.13 138.87, 140.76 138.64, 0.34 137.48 M-1.58 137.76 C-2.34 85.34, -0.98 28.33, 1.61 0.33 M-0.41 138.68 C1.02 103.48, 0.19 70.42, -0.06 0.67" stroke="#000000" stroke-width="1" fill="none"></path></g><g stroke-linecap="round" transform="translate(1531 481) rotate(0 130.5 70)"><path d="M0 0 C0 0, 0 0, 0 0 M0 0 C0 0, 0 0, 0 0 M0.22 6.45 C1.02 4.2, 3.82 2.13, 5.58 0.98 M-0.33 6.75 C1.95 4.52, 3.35 2.27, 4.76 0.71 M-1.08 11.02 C2.54 6.05, 8.96 2.21, 12 0.12 M-0.2 12.68 C2.94 8.5, 6.47 4.31, 11.43 -0.8 M1.34 17.89 C6.27 11.12, 11.36 2.73, 16.31 1.89 M-0.33 18.73 C6.08 13.21, 10.59 5.28, 14.96 -0.63 M1.55 24.21 C8.25 17.13, 13.2 9.12, 22.15 -0.69 M0.82 24.95 C4.37 19.19, 11.2 13.48, 21.59 0.15 M-1.74 30.36 C10.76 20.55, 19.26 10.83, 25.87 2.23 M0.69 29.77 C10.78 19.03, 21 6.51, 26.48 0.35 M-0.22 36.81 C10.72 22.43, 22.45 9.85, 33.18 -1.13 M-1.09 37.59 C8.1 24.89, 18.09 14.68, 32.01 0.14 M1.98 40.95 C9.52 30.55, 19.44 20.81, 36.37 -1.3 M-0.32 43.25 C10.69 29.84, 20.03 19.63, 36.16 0.02 M0.49 48.2 C11.13 40.05, 18.14 27.94, 43.79 1.25 M-0.81 49.42 C12.51 33.67, 26.2 18.22, 42.16 -1.11 M-0.53 53.47 C11.09 41.9, 23.36 28.63, 48.76 -1.11 M0.6 55.39 C17.54 36.73, 33.14 16.6, 46.61 1.11 M0.6 60.08 C22.14 39.28, 42.26 15.38, 55.05 1.67 M0.26 60.23 C14.98 45.74, 27.28 28.56, 53.19 0.66 M-0.23 69.24 C21.34 42.39, 39.36 18.55, 57.74 0.14 M0.64 67.54 C16.28 47.44, 33.68 28.86, 58.79 0.19 M-0.59 71.17 C25.05 47.2, 48.15 17.58, 64.74 -1.88 M-0.19 72.9 C16.38 54.42, 33.19 35.9, 63.16 -0.9 M-1.4 78.12 C26.16 49.57, 47.49 22.89, 69.69 -0.43 M-0.15 80.13 C16.74 59.83, 35.92 39.41, 69.07 0.68 M-0.06 83.97 C15.82 66.03, 32.89 47.6, 73.38 1.35 M0.88 85.17 C25.11 56.44, 51.12 27.64, 74 0.17 M0.44 93.01 C30.94 57.5, 59.36 23.53, 80.72 0.09 M0.19 92.2 C23.85 62.99, 50.12 33.42, 80.22 -0.12 M-1.71 99.53 C24.58 70.78, 50.15 39.85, 86.18 0.93 M0.26 97.41 C24 70.83, 46.62 43.14, 84.53 -0.76 M-0.87 104.84 C20.81 81.85, 40.62 57.71, 90.68 0.39 M-0.81 103.41 C35.06 64.79, 68.56 25.06, 90.38 -0.06 M0.21 108.39 C26.85 78.68, 56.47 49.2, 95.09 -0.83 M0.11 110.57 C37.79 67.06, 75.54 23.05, 95.49 0 M-0.76 117.29 C40.15 71.32, 78.05 28.08, 101.11 0.95 M0.24 115.8 C28.57 82.32, 57.53 50.1, 100.09 0.87 M-0.76 121.16 C30.98 89.51, 58.72 55.34, 104.77 1.2 M0.99 121.72 C34.87 82.7, 67.94 42.74, 106.48 -0.48 M1.4 129.63 C27 95.38, 54.3 63.85, 109.29 2.01 M-1 127.48 C34.72 87.91, 70.94 47.7, 111.28 -0.46 M1.26 135.47 C28.97 104.13, 54.3 73.63, 117.94 1.65 M-0.47 134.05 C32.15 96.81, 64.13 59.46, 116.35 -0.02 M-1.06 139.61 C32.74 100.97, 69.14 59.29, 122.2 1.62 M-1.04 140.68 C35.85 101.22, 70.97 60.88, 122.28 0.68 M7.15 140.68 C39.91 98.12, 78.12 56.49, 128.02 -0.29 M5.98 140.57 C47.35 90.02, 89.73 40.62, 126.79 0.66 M10.41 141.95 C43.34 106.71, 72.22 69.35, 130.56 1.58 M11.04 141.19 C40.47 105.3, 70.92 69.9, 132.79 -0.12 M16.22 139.99 C54.75 97.41, 94.41 50.65, 137.16 1.56 M16.74 139.17 C43.04 108.59, 71.21 76.64, 137.45 -0.56 M20.76 139.56 C67.64 86.81, 116.81 29.67, 142.78 1.48 M21.72 140.52 C68.07 83.91, 116.2 29.02, 142.92 0.59 M28.3 140.4 C68.63 92.18, 108.13 46.97, 148.91 -0.54 M27.35 139.65 C58.54 103.37, 89.53 66.2, 147.48 0.84 M30.15 142.06 C65.41 101.31, 96.59 66.51, 155.02 0.72 M30.86 139.51 C74.55 91.69, 116.01 44.89, 154.17 -0.9 M36.14 138.67 C66.42 101.89, 96.32 69.42, 157.51 -1.58 M38 140.64 C67.09 108.68, 93.05 77.34, 157.96 -0.28 M41.47 139.83 C78.25 101.34, 110.72 64.41, 165.14 0.45 M42.2 139.31 C73.65 105.54, 104.28 71.63, 164.41 -0.4 M46.24 141.34 C97.24 84.31, 144.48 28.99, 169.95 -1.76 M47.25 140.6 C91.98 90.56, 134.65 40.5, 168.83 0.3 M54.31 142.06 C94.87 90.45, 138.01 42.07, 174.73 1.6 M52.4 140.48 C92.33 95.22, 132.04 49.73, 174.92 -0.89 M56.8 138.71 C101.14 92.36, 143.79 42.07, 179.92 -0.5 M59.07 138.89 C92.58 102.57, 124.29 65.85, 179.95 1.16 M62.99 138.69 C97.86 99.67, 132.69 57.21, 187.08 -1.1 M63.98 139.89 C96.97 100.45, 130.62 61.25, 185.37 0.5 M67.76 138.88 C106.68 94.25, 142.39 53.1, 189.82 1.56 M69.81 140.69 C103.38 99.91, 137.77 59.97, 190.04 0.24 M74.55 138.46 C122.48 84.97, 168.26 29.89, 197.22 -1.15 M74.36 139.8 C110 99.66, 146.1 56.29, 196.82 -0.46 M78.1 138.48 C123.74 91.73, 165.54 42.29, 200.79 0.57 M78.55 140.82 C116.78 98.34, 152.28 56.04, 201.74 -0.17 M86.74 138.9 C116.68 104.24, 147.26 69.85, 205.89 -2.27 M84.86 140.82 C118.86 100.95, 152.85 62.18, 206.7 -0.19 M90.51 141.68 C131.69 90.4, 174.65 42.91, 210.68 -0.56 M90.75 139.69 C126.05 98.75, 163.18 57.57, 212.56 -0.4 M94.03 140.3 C131.09 96.4, 170.27 53.05, 217.54 -0.38 M95.69 140.94 C141.02 91.43, 183.54 40.62, 217.86 -0.21 M101.4 138.64 C130.59 108.05, 160.33 74.32, 224.05 1.89 M101.27 140.83 C129.17 106.08, 160.93 71.95, 221.91 -0.43 M105.63 139.74 C153.43 88.5, 199.34 35.4, 226.36 -1.65 M106.93 140.46 C134.17 111.52, 159.95 82.28, 227.52 -0.2 M109.58 140.61 C157.05 88.91, 201.96 34.88, 234.19 -1.6 M112.03 140.87 C137.36 112.26, 162.98 82.2, 234.09 -0.88 M115.43 141.08 C146.71 103.53, 177.38 70.44, 237.58 0.3 M117.58 139.1 C159.03 89.35, 202.16 40.97, 237.65 -0.23 M121.57 138.58 C168.14 82.41, 217.66 30.97, 245.11 0.24 M122.34 141.31 C147.9 110.1, 174.7 78.7, 243.28 -0.03 M128.08 140.97 C165.89 94.13, 206.54 52.17, 248.13 -0.61 M126.51 140.89 C154.89 107.88, 183.24 76.28, 248.57 1.24 M133.62 141.34 C171.84 98.67, 208.9 54.05, 253.53 1.46 M131.88 139.51 C158.87 111.16, 183.76 83.06, 254.57 -0.77 M136.91 138.83 C182.63 86.91, 229.74 34.75, 260.69 -0.46 M137.48 139.24 C176.88 95.3, 217.05 49.29, 260.02 0.86 M141.67 141.45 C173.29 105.94, 201.75 72.73, 264.93 3.15 M143.75 139.67 C176.27 101.27, 209.46 62.25, 262.96 2.62 M150.01 138.87 C191.44 94.11, 228.62 47.98, 261.74 9.29 M148.16 139.93 C179.29 106.07, 209.65 72.25, 264.23 7.94 M155.41 141.25 C183.92 103.13, 214.61 68.69, 264.9 14.48 M153.43 139.86 C180.72 109.2, 207.92 77.75, 263.74 14.5 M160.15 140.07 C186.33 110.24, 210.83 79.89, 262.04 19.11 M159.1 140.07 C188.45 108.22, 217.63 74.64, 263.34 20.84 M164.23 138.88 C187.2 115.12, 207.01 89.25, 264.86 28.02 M163.77 141.03 C193.06 106.59, 222.51 71.53, 263.2 26.23 M170.84 138.2 C203.76 96.22, 241.7 56.61, 261.31 33.51 M170.72 139.17 C204.72 99.53, 241.92 58.36, 263.19 32 M175.25 138.25 C196.18 115.85, 217.75 91.03, 264.4 36.94 M174.05 139.97 C200.95 111, 225.57 80.93, 263.97 38.35 M182.3 139.81 C206.23 110.68, 231.06 79.28, 265.11 43.55 M180.37 140.06 C213.77 101.75, 245.32 64.97, 263.08 45.51 M187.3 139.03 C202.09 120.06, 216.88 103.14, 261.19 51.97 M184.92 140.32 C208.46 114.17, 229.06 89.27, 263.95 50.5 M189.48 140.23 C216.33 112.42, 241.89 81.38, 265.37 57.33 M191.26 139.95 C213.05 115.83, 233.18 91.9, 263.35 56.56 M196.94 138.71 C220.82 109.21, 248.27 83.42, 263.57 64.33 M195.4 139.59 C211.37 123.43, 226.67 104.9, 263.85 63.44 M199.39 142.33 C226.03 112.18, 248.94 83.07, 261.72 70.73 M200.84 140.16 C215.82 123.36, 230.4 106.95, 263.76 69.23 M208.42 138.54 C221.68 120.43, 238.9 99.44, 264.65 76.28 M205.94 140.16 C220.38 124.04, 234.77 108.44, 262.34 74.51 M211.71 139.49 C228.39 116.89, 247.51 97.53, 262.89 82.16 M212.43 140.1 C221.67 128.95, 233.25 117.37, 263.78 82.17 M215.75 141.54 C230.35 125.15, 244.54 108.27, 262.9 88.13 M217.35 140.25 C233.07 120.83, 249.68 102.62, 263.62 87.71 M220.88 142.14 C237.45 123.42, 251.29 107.95, 263.27 95.55 M222.27 140.82 C235.53 124.04, 250.13 108.41, 262.24 92.65 M228.64 138.55 C233.84 132.1, 243.16 124.27, 263.51 100.96 M227.86 140.96 C240.97 124.96, 254.95 110.49, 263.8 99.35 M232.74 140.74 C242.13 130.91, 248.07 122.71, 265 106.88 M233.13 140.95 C244.46 127.17, 255.25 116.03, 262.41 106.07 M238.5 138.14 C243.53 132.86, 251.09 128.11, 263.74 111.38 M238.05 139.23 C247.33 130.52, 256.56 118.94, 263.18 111.88 M241.8 140.52 C247.98 134.08, 254.19 127.52, 262.6 119.15 M244.69 140.51 C246.74 135.44, 250.67 131.5, 263.6 117.92 M248.49 140.7 C253.41 136.77, 255.22 132.19, 261.53 122.54 M249.92 140.86 C254.25 133.2, 259.71 126.65, 263.98 123.84 M253.64 139.73 C257.21 137.28, 262.32 132.34, 264.08 129.31 M254.47 139.97 C257.01 136.36, 261.24 132.64, 263.5 129.61 M259.87 140.02 C260.9 139.37, 261.94 138.3, 262.85 135.74 M259.96 139.8 C260.79 138.81, 261.51 138.01, 263.28 135.94" stroke="#be4bdb" stroke-width="0.5" fill="none"></path><path d="M0.75 -0.03 C70.79 0.28, 142.23 -0.66, 260.12 -1.16 M-0.35 -0.37 C63.52 -1.16, 128.11 -0.55, 261.36 -0.05 M261.91 -1.38 C263.58 38.72, 259.93 73.7, 260.76 138.41 M261.8 0.17 C260.28 50.79, 260.75 102.74, 261.68 139.94 M260.9 141.07 C202.12 140.59, 142.3 140.21, -0.58 141 M260.99 139.73 C203.9 140.4, 146.34 140.93, 0.08 139.53 M1.97 141.66 C0.59 89.3, 1.06 37.14, -1.57 -0.09 M-0.41 140.56 C0.28 97.78, 1.29 57.78, -0.33 -0.45" stroke="#000000" stroke-width="1" fill="none"></path></g><g stroke-linecap="round" transform="translate(1025 47) rotate(0 65.5 67.5)"><path d="M0.21 67.76 C0.21 67.76, 0.21 67.76, 0.21 67.76 M0.21 67.76 C0.21 67.76, 0.21 67.76, 0.21 67.76 M1.25 69.22 C21.64 48.95, 42.17 28.91, 50.59 17.62 M3.02 70.83 C17.36 52.57, 34.29 36.06, 51.33 15.06 M6.25 74.19 C30.41 45.25, 52.17 15.62, 67.8 3.35 M5.4 74.73 C27.58 49.22, 47.81 25.19, 67.21 2.55 M9.07 76.49 C31.82 51.18, 52.82 25.81, 70.86 3.76 M9.25 75.87 C25.59 57.94, 43 37.09, 71.64 3.97 M11.21 80.25 C22.69 65.54, 36.89 52.38, 72.39 7.89 M10.72 78.99 C23.59 64.28, 38.05 48.78, 74.68 7.53 M12.57 81.92 C27.19 65.57, 41.88 49.62, 75.6 12.45 M14.63 83.08 C38.75 53.27, 63.97 25.24, 76.82 9.95 M16.29 83.06 C35.01 64.1, 56.17 40.94, 78.24 12.38 M17.64 84.35 C40.51 57.72, 63.56 32.13, 80.17 14.3 M18.24 89.42 C45.57 60.49, 67.24 33.11, 80.82 18.27 M20.98 88.56 C43.48 59.41, 67.3 31.74, 80.97 17.64 M22.48 92.69 C46.55 66.61, 68.38 39.6, 86.6 20.58 M22.19 90.99 C38.43 72.41, 54.98 56.23, 84.9 18.41 M26.72 93.64 C45.33 74.3, 60.65 51.06, 85.9 23.08 M25.89 92.8 C49.9 65.12, 74.76 35.95, 87.63 22.14 M27.19 94.87 C46 74.86, 62.4 55.65, 88.83 26.75 M28.89 95.97 C41.05 82.12, 53.79 67.6, 90.83 24.56 M31.41 100.7 C50.86 74.88, 74.79 47.85, 92.05 27.74 M30.28 100.44 C48.68 79.49, 65.42 59.52, 93.25 27.75 M32.98 103.09 C53.46 82.37, 71.31 60.04, 97.71 32.07 M34.48 102.25 C56.07 77.31, 77.5 51.23, 96.9 30.08 M38.48 104.41 C55.74 81.77, 74.84 58.77, 100.19 33.56 M37.4 105.49 C58.48 79.38, 80.95 55.04, 98.07 34.36 M38.18 107.3 C56.16 88.19, 74.54 65.59, 102.88 37.74 M39.52 108.43 C59.34 85.32, 77.61 62.07, 101.45 36.95 M42.91 110.61 C58.99 91.14, 74.88 72.61, 102.39 39.34 M41.92 110.64 C59.11 90.87, 73.99 72.56, 104.57 39.51 M44.87 114.14 C64.81 92.29, 79.02 72.72, 108.67 42.4 M45.46 113.97 C64.26 91.43, 82.76 69.91, 107.18 42.3 M46.45 118.54 C61.15 98.79, 73.88 83.58, 109.16 45.81 M46.83 117.67 C67.28 95.41, 85.72 74, 109.72 45.9 M50.98 119.25 C69.44 95.64, 88.57 76.8, 113.6 47.17 M49.61 120.52 C63.99 105.48, 76.94 90.24, 111.44 48.37 M53.61 121.2 C73.16 95.48, 95.27 73.08, 116.81 52.72 M54.46 122.79 C71.66 101.47, 90.73 79.25, 115.4 51.36 M56.14 124.74 C78.79 99.65, 100.48 71.61, 117.57 52.11 M56.14 126.34 C75.16 103.24, 93.75 80.88, 118.64 54.07 M59.73 129.55 C77.71 106.8, 98.49 85.76, 121.4 56.26 M59.57 127.83 C78.1 106.9, 97.23 84.7, 121.29 57.36 M61.81 131.4 C77.39 110.67, 95.88 93.41, 125.33 61.3 M61.04 131.59 C85.14 103.5, 109.89 77.09, 124.56 58.94 M65.53 133.27 C88.12 106.44, 108.1 82.51, 126.78 61.33 M64.86 134.03 C85.77 109.11, 108.72 85.06, 125.96 62.26 M67.24 135.05 C91.36 111.76, 111.05 84.43, 128.36 64.26 M67.21 137.56 C93.29 108.82, 117.45 80.6, 129.32 65.66" stroke="#82c91e" stroke-width="0.5" fill="none"></path><path d="M66.19 -1.17 C81.21 15.83, 93.36 31.86, 132.66 69.17 M65.21 -0.04 C87.94 21.79, 109.16 44.48, 131.56 67.29 M130.35 67.09 C116.85 84.48, 102.87 99.1, 66.32 135.16 M130.07 68.89 C116.78 80.59, 104.02 95.83, 66.22 134.15 M65.49 135.35 C45.38 113.66, 21.46 92.69, 0.12 66.81 M66.74 135.78 C48.07 117.3, 29.57 97.82, 0.89 68.85 M-1.15 69.74 C27.44 40.95, 51.87 13.09, 64.72 -1.9 M0.86 68.1 C13.53 54.54, 26.36 39.57, 66.8 -0.62" stroke="#000000" stroke-width="1" fill="none"></path></g><g stroke-linecap="round" transform="translate(1803 480) rotate(0 79.5 70.5)"><path d="M0 0 C0 0, 0 0, 0 0 M0 0 C0 0, 0 0, 0 0 M0.18 7.09 C0.23 5.67, 2.99 4.2, 5.25 0.53 M-0.61 6.37 C1.89 4.41, 3.59 2.47, 4.91 0.75 M1.22 10.9 C5.02 8.09, 8.89 2.44, 11 0.05 M0.15 12.01 C3.65 7.28, 7.46 3.25, 11.14 -0.45 M-1.8 19.85 C2.89 11.11, 8.67 7.01, 15.86 0.81 M0.79 17.65 C3.93 13.18, 8.26 9.04, 15.36 -0.45 M-0.65 25.53 C6.61 15.83, 10.77 12.1, 19.83 -0.54 M0.57 23.72 C5.82 19.73, 9.25 13.76, 21.89 0.63 M-1.38 31.48 C6.76 21.15, 16.16 10.94, 25.52 -1.66 M-0.39 29.93 C6.07 23.37, 12.87 15.98, 26.88 -0.37 M0.41 38.54 C12.8 25.95, 22.79 10.08, 30.1 1.68 M0.04 36.44 C12.97 23.57, 25.19 9.13, 32.84 0.82 M0.64 41.06 C11.72 32.79, 17.9 19.64, 36.96 1.93 M0.15 43.46 C13.56 26.94, 25.25 11.94, 36.68 0.23 M1.67 49.29 C10.8 34.23, 24.24 21.65, 43.83 -0.14 M-0.49 48 C16.37 31.3, 32.08 11.7, 43 -0.98 M-0.4 54.35 C12.58 40.49, 25.81 26.9, 46.26 -1.17 M-0.37 53.92 C18.03 34.47, 33.18 15.97, 47.97 -0.07 M-0.05 62.42 C12.08 46.56, 28.76 30.68, 53.76 0.88 M-0.16 60.42 C11.2 47.4, 23.25 34.14, 52.63 0.62 M0.95 67.62 C19.07 44.79, 40.53 22.34, 57.31 1.01 M-0.04 68.14 C22.14 42.15, 43.44 17, 58.8 0.17 M0.5 74.52 C18.67 50.4, 41.03 25.95, 65.43 -0.69 M-0.59 73.85 C18.76 52.53, 37.64 30.05, 64.35 0.39 M0.9 78.54 C19.95 57.52, 37.37 34.13, 67.75 -0.82 M-0.63 80.08 C15.4 62.72, 30.57 44.61, 69.1 0.31 M-1.65 84.91 C29.52 52.84, 56.55 19.37, 75.11 -0.53 M0.44 84.3 C21.31 61.06, 43.57 37.76, 74.12 -0.5 M0.46 92.82 C30.91 55.76, 62.23 18.57, 79.04 0.74 M-0.51 92.33 C31.59 56.46, 61.93 21.75, 79.63 0.57 M-0.33 98.39 C23.47 68.79, 48.57 42.12, 83.9 1.37 M-0.64 97.46 C24.41 71.78, 47.11 44.54, 84.27 0.5 M2.1 103.09 C30.42 70.46, 56.62 36.49, 90.39 -0.19 M0.97 104.14 C22.53 77.52, 44.61 52.06, 89.03 1.08 M-1.63 108.2 C29.68 75.76, 62.06 41.43, 95.65 -1.26 M0.44 110.63 C23.17 85.29, 44.4 60.17, 96.5 0.33 M-0.96 115.71 C28.12 84.17, 55.28 51.82, 100.8 -0.74 M-0.2 115.15 C27.85 83.08, 57.38 49.21, 100.8 0.87 M-1.85 122.56 C31.61 87.95, 62.5 52.55, 107.02 1.06 M0.83 122.28 C30.48 85.2, 63.01 48.94, 106.86 -0.66 M0.65 129.53 C38.35 82.05, 77.09 36.19, 111.07 0.64 M-0.3 129.13 C29.14 96.89, 56.06 63.86, 110.29 0.83 M1.19 135.69 C27.71 101.24, 56.78 67.08, 116.76 0.24 M0.18 133.99 C37.59 92.84, 75.1 49.12, 116.09 1 M1.04 138.84 C26.71 109.52, 56.17 76.55, 121.74 -1.75 M-0.31 139.99 C47.17 85.89, 96.11 29.31, 121.72 0.77 M4.05 143.45 C50.41 85.01, 99.6 29.41, 126.39 1.69 M3.66 143.24 C44.94 94.7, 85.7 47.93, 127.28 -0.06 M9.01 142.86 C40.59 105.46, 71.47 66.9, 131.18 1.09 M7.08 144.24 C41.66 104.6, 73.65 68.34, 133.15 0.37 M11.69 141.45 C57.22 93.12, 99.42 46.36, 138.25 -1.24 M12.9 142.35 C43.38 105.01, 74.38 70.3, 136.89 -0.6 M19.67 144.86 C49.9 111.1, 75.01 79.24, 141.5 -1.11 M18.06 143.11 C54.47 104.29, 88.2 65.7, 143.53 0.21 M23.1 141.86 C54.93 107.54, 86.39 74, 148.11 -0.21 M22.6 144.42 C73.28 87.1, 122.1 30.46, 148.43 -0.71 M27.54 144.83 C74.36 93.51, 117.96 41.39, 152.62 0.08 M29.79 144.21 C71.72 93.26, 115.08 44, 153.64 0.77 M32.86 144.21 C73.55 98.26, 114.88 51.09, 158.5 -1.16 M33.2 143.09 C78.08 94.55, 121.86 43.57, 158.73 -0.1 M40.55 141.43 C73.39 106.39, 103.62 71.11, 158.97 7.86 M39.45 142.51 C73.53 103.68, 107.93 62.92, 159.88 5.44 M45.38 143.07 C76.45 106.64, 107.54 69.92, 158.28 13.74 M44 143.16 C79.61 101.21, 114.2 61.39, 158.5 12.99 M51.4 145.07 C80.95 107.38, 111.53 71.43, 158.04 18.12 M50.54 142.38 C92.88 94.38, 134.45 45.36, 159.77 17.48 M55.52 142.93 C86.42 110.08, 116.98 71.26, 160.04 23.92 M54.81 142.57 C92.69 101.81, 128.77 59.62, 158.8 24.55 M59.57 143.86 C91.92 109.47, 118.92 75.48, 159.65 30.18 M61.95 142.58 C86.24 114.53, 110.65 86.84, 158.26 29.73 M65.89 145.02 C92.36 113.5, 118.72 83.83, 158.68 36.58 M66.33 144.15 C97.9 105.82, 130.51 69.27, 158.56 36.05 M73.34 141.64 C97.25 112.29, 124.64 83.85, 160.17 41.84 M70.91 143.26 C97.5 111.95, 125.32 80.8, 158.91 42.73 M76.91 145.27 C108.64 111.73, 136.28 76.13, 159.87 48.65 M77.09 142.61 C96.97 121.44, 117 98.64, 160.06 49.33 M83.76 143.95 C99.6 121.27, 121.35 101.05, 157.74 53.88 M82.02 142.96 C111.88 110.57, 140.71 77.27, 158.14 54.15 M88.77 144.36 C104.82 126.81, 119.9 110.3, 157.41 61.52 M86.5 143.58 C114.17 113.29, 140.58 81.73, 159.3 60.4 M94.65 144.07 C106.99 128.86, 121.16 111.42, 160.97 65.08 M92.24 143.62 C109.27 123.25, 126.01 105.09, 158.89 66.81 M99.44 141.66 C117.66 117.13, 139.52 94.45, 157.85 72.07 M97.81 142.55 C121.09 114.46, 145.85 88.74, 159.57 73.38 M104.62 144.98 C115.41 129.49, 127.9 113.97, 157.57 79.65 M103.88 143.54 C120.99 122.17, 139.55 103.21, 158.33 79.17 M106.67 145.28 C119.76 130.12, 131.96 118.14, 158.56 87.12 M109.14 143.91 C124.9 126.27, 140.18 107.69, 158.6 86.04 M113.08 141.4 C125.22 132.94, 134.3 123.58, 159.02 90.29 M113.61 142.46 C130.44 123.4, 148.07 104.14, 159.43 91.3 M117.99 142.02 C132.14 129.81, 146.35 113.87, 160.33 98.47 M118.49 143.95 C129.4 131.8, 138.86 120.68, 160.1 97.82 M126.19 141.76 C134.38 131.01, 142.69 119.75, 158.6 104.65 M125.48 142.46 C137.9 129.44, 148.27 115.83, 158.05 104.46 M128.72 143.43 C137.18 133.18, 146.26 124.95, 160.09 110.4 M130.67 143.83 C137.92 133.18, 146.04 124.27, 159.5 110.25 M134.91 142.19 C140.29 135.68, 145.76 129.05, 160.03 116.36 M135.86 143.04 C141.71 136.37, 146.86 129.36, 158.6 115.02 M139.96 143.76 C144.75 138.94, 150.28 132.55, 159.5 122.65 M140.4 142.63 C145.12 138.54, 148.16 133.5, 159.55 123.04 M144.32 145.32 C148.55 139.99, 153.14 132.36, 158.82 127.79 M145.86 142.84 C150.05 136.62, 156.37 131.36, 158.3 128.24 M151.98 142.49 C153.06 139.82, 157.77 136.35, 159.02 133.43 M151.16 142.68 C152.88 141.27, 154.84 139.01, 159.21 133.8 M155.7 143.53 C157.13 142.76, 157.58 141.54, 158.87 140.62 M156.23 143.62 C156.84 142.78, 157.55 141.68, 158.87 140.48" stroke="#be4bdb" stroke-width="0.5" fill="none"></path><path d="M-0.83 1.12 C45.75 -0.99, 94.94 2.07, 158.35 -0.91 M-0.25 0.16 C53.47 -2.37, 106.6 -2.18, 158.07 0.89 M160.53 0.43 C156.32 32.49, 157.43 64.71, 158.49 141.35 M159.61 0.06 C158.6 47.3, 159.89 94.82, 159.74 141.78 M158.64 142.77 C102.33 143.26, 41.33 143.07, -1.15 142.74 M158.24 140.36 C98.67 140.28, 40.84 140.69, 0.86 141.1 M-0.83 142.61 C-1.78 96.59, -1.33 50.75, 1.99 -1.91 M0.73 140.72 C-0.45 86.26, -0.96 30.99, 0.35 0.78" stroke="#000000" stroke-width="1" fill="none"></path></g><g stroke-linecap="round" transform="translate(1973 484) rotate(0 77 69.5)"><path d="M0 0 C0 0, 0 0, 0 0 M0 0 C0 0, 0 0, 0 0 M-0.03 5.71 C1.97 4.05, 2.74 2.07, 4.8 0.02 M-0.17 6.12 C1.51 4.38, 3.45 1.7, 4.68 0.38 M1.54 13.52 C2.04 9.7, 6.21 7.33, 10.7 -1.29 M-0.46 12.07 C4.2 7.01, 7.94 1.99, 10.25 0.2 M-1.07 19.78 C5.08 13.73, 12.64 4.04, 16.42 -0.48 M0.86 19.35 C5.93 11.13, 10.13 6.3, 16.5 0.42 M1.84 25.92 C6.81 19.46, 13.17 13.28, 20.56 0.14 M1.21 24.68 C4.16 18.36, 9.83 14.05, 21.81 0.53 M1.27 29.5 C7.05 19.48, 16.6 10.63, 26.01 -1.55 M-0.9 30.37 C9.35 19.65, 20.28 7.55, 27.09 1.19 M0.88 38.86 C7.7 28.41, 16.87 17.06, 30.98 0.36 M-0.06 36.65 C8.85 27.4, 15.61 17.39, 32.4 -0.99 M1.56 40.59 C10.56 28.63, 24.46 15.56, 36 0.35 M-0.62 43.09 C11.01 31.1, 20.65 19.55, 36.07 0.81 M-0.33 48.6 C13.52 34.19, 24.79 20.98, 43.32 0.25 M-0.32 48.89 C10.57 37.08, 19.93 25.39, 43.31 0.6 M1.77 55.63 C16.38 37.04, 34.28 16.43, 47.85 2.06 M-0.22 54.73 C12.92 39.79, 25.28 26.03, 47.41 -0.24 M-0.38 62.11 C15.17 42.77, 30.17 28.84, 52.62 -1.23 M0.42 60.9 C16.09 41.06, 32.58 22.29, 52.35 0.06 M0.92 67.71 C14.25 51.03, 26.57 37.56, 59.71 -0.82 M0.13 67.11 C13.42 51.43, 27.04 37, 57.98 -0.17 M-0.47 72.38 C16.37 57.95, 28.48 39.55, 65.66 -1.32 M-0.3 72.84 C13.66 55.57, 27.99 40.44, 64.68 -1 M-0.29 79.46 C14.45 62.72, 31.85 43.91, 68.45 0.11 M-0.4 78.67 C18.3 58.11, 35.82 38.07, 68.51 -0.79 M0.89 85.18 C14.76 67.63, 29.08 52.35, 74.92 0.51 M0.98 85.17 C17.62 63.3, 37.64 41.32, 73.88 -1.09 M-1.4 89.53 C16.58 67.33, 35.26 49.2, 79.69 0.02 M-0.19 91.95 C29.16 61.1, 55.8 28.25, 78.67 -0.57 M1.27 97.8 C21.14 72.3, 43.82 49.07, 84.62 0.58 M-0.09 98.5 C29.58 64.44, 59.4 29.52, 84.92 0.12 M-1.57 103.63 C20.8 78.99, 42.12 58.07, 89.74 -1.13 M0.39 103.59 C22.23 79.35, 42.7 56.46, 89.97 0.39 M-1.06 110.08 C36.51 67.82, 72.1 26.09, 96.69 0.99 M0.04 109.54 C33.09 69.72, 66.75 32, 95.14 -1.17 M1.75 117.2 C35.86 73.1, 68.94 35.13, 99.64 -0.61 M-0.61 116.11 C34.5 73.8, 71.17 32.62, 100.85 -0.67 M-1.11 122.87 C22.42 94.6, 44.83 71.12, 104.76 -0.4 M-0.18 122.59 C40.06 76.76, 78.83 30.29, 107.29 0.11 M-1.82 130.28 C27.01 97.22, 55.85 65.59, 113.13 1.11 M-0.41 127.63 C38.5 82.25, 77.5 38.16, 111.61 -0.13 M1.5 133.07 C39.22 88.45, 78.89 41.98, 115.54 0.85 M0.25 133.58 C27.24 100.44, 56.15 68.75, 115.85 -0.39 M1.67 137.62 C46.87 86.89, 91.55 37.37, 122.7 -1.68 M0.77 139.12 C43.22 93.56, 84.37 45.21, 121.45 0.98 M5.79 137.56 C50.99 89.22, 96.22 34.1, 125.44 -1.36 M7.12 139.01 C33.85 104.93, 62.79 70.77, 126.65 -0.39 M12.45 138.22 C38.07 110.17, 64.59 80.53, 131.54 -1.9 M10.67 138.85 C36.95 111.37, 63.07 81.03, 133.49 -0.02 M18.25 138.31 C51.7 99.39, 84.13 60.92, 138.6 -1.03 M16.91 140.03 C61.58 88, 104.91 37.6, 137.96 0.5 M22.13 138.02 C60.51 92.95, 96.41 52.96, 143.56 -1.69 M21.06 140.1 C66.74 88.42, 110.55 37.26, 143.69 -0.42 M26.17 140.59 C54.88 108.51, 82.71 76.91, 147.54 -1.17 M27.04 139.67 C56.43 106.09, 87.87 70.98, 148.07 0.78 M31.83 139.37 C63.28 102.24, 97.59 66.7, 153.38 1.61 M32.93 139.67 C75.92 89.57, 119.26 39.81, 153.94 0.82 M38.12 138.91 C81.15 91.1, 126.11 40.02, 156.53 3.27 M37.39 139.79 C71.61 98.15, 106.39 58, 157.73 3.05 M44.43 138.45 C70.88 106.37, 100.62 74.15, 156.5 10.46 M43.67 140.23 C73.74 104.08, 103.96 70.05, 157.13 9.17 M49.43 140.82 C78.92 107.46, 109.09 71.4, 156.98 14.4 M48.75 139.87 C80.83 102.18, 114.12 64.73, 156.44 14.09 M54.51 139.19 C90.89 97.5, 125.89 52.55, 156.21 21.04 M54.04 139.31 C87.86 100.06, 120.32 61.93, 157.16 21.35 M58.77 137.91 C85.08 108.59, 108.94 78.9, 157.07 26.77 M58.48 138.99 C79.15 116.39, 100.28 91.84, 157.23 27.15 M62.38 139.31 C88.26 112.07, 113.43 83.63, 157.94 31.31 M65.22 140.28 C88.72 110.36, 113.5 82.29, 156.21 32.47 M69.56 140.53 C93.73 113.49, 118.21 87.33, 155.56 41.24 M68.79 139.58 C89.27 117.22, 107.73 93.13, 157.3 38.92 M76.04 140.31 C102.08 110.49, 124.11 79.8, 155.19 43.05 M75.76 139.4 C91.88 120.09, 107.25 100.4, 157.73 45.03 M79.94 139.83 C95.13 120.71, 112.54 102.48, 154.88 50.22 M79.83 140.45 C99.57 115.92, 120.7 91.72, 156.22 51.68 M85.25 137.49 C103.96 118.43, 121.64 97.35, 158.19 56.79 M84.6 138.76 C108.97 111.86, 134.18 82.13, 158.02 56.87 M88.75 137.74 C115.25 113.46, 141.48 83.55, 155.19 64.16 M90.61 139.76 C109.06 116.85, 126.82 96.26, 157 62.84 M95.46 137.9 C117.25 117.08, 134.69 92.75, 155.21 70.64 M96.09 139.34 C113.96 119.98, 130.57 100.59, 156.67 68.94 M101.57 140.96 C114.99 122.8, 128.88 107.55, 155.05 74.52 M102.04 140.02 C123.03 117.27, 142.96 91.91, 157.65 74.92 M105.85 138.39 C126.33 117.53, 143.92 97.94, 157.23 83.18 M106.94 139.95 C121.82 123.78, 135.65 108.07, 156.09 81.31 M112.67 138.97 C129.5 119.29, 147.19 102.16, 156.74 88.57 M111.91 139.11 C122.81 125.58, 135.14 112.94, 157.63 87.27 M119.32 139.58 C125.75 128.68, 135.55 117.73, 155.99 92.07 M117.29 138.29 C126.4 129.18, 134.49 120.87, 156.63 94.66 M123.06 138.04 C134.49 125.19, 146.98 112.98, 155.58 100.07 M121.91 139.27 C129.49 130.63, 138.44 122.31, 156.1 99.88 M128.47 139.89 C136.27 128.57, 146.02 115.8, 156.57 104.99 M127.64 139.88 C133.7 132.92, 140.09 126.07, 156.18 106.26 M134.46 139.23 C138.77 131.38, 147.14 127.02, 156.61 112.35 M132.62 140.1 C141.52 128.66, 150.01 119.83, 157.57 113.34 M137.65 137.51 C146.36 131.56, 150.36 124.61, 158.79 118.37 M137.89 139.13 C142.82 135.01, 146.02 130.15, 156.52 117.76 M143.33 140.36 C148.37 134.67, 154.24 127.18, 156.58 124.76 M144.52 139.54 C147.86 134.14, 152.22 130.51, 156.99 124.35 M148.43 140.64 C150.44 136.55, 155.32 132.78, 157.76 131.67 M149.28 139.38 C150.26 137.97, 152.15 136.29, 156.04 130.88" stroke="#be4bdb" stroke-width="0.5" fill="none"></path><path d="M-1.9 -1.83 C49.28 -0.02, 97.82 1.18, 154.38 0.76 M-0.62 0.3 C34.62 -1.36, 71.03 -2.19, 154.87 0.46 M154.39 -0.33 C154.4 38.39, 155.71 81.75, 154.73 138.55 M154.87 0.99 C153.81 51.76, 153.06 104.26, 154.01 138.69 M155.58 139.48 C96.72 138.85, 39.92 138.48, -1.33 137.44 M153.02 139.9 C97.29 141.16, 39.03 140.55, 0.61 138.97 M1.29 139.78 C1.54 108.45, 0.83 75.93, 1.93 0.77 M0.48 139.53 C-0.65 96.65, -0.72 54.38, 0.71 0.05" stroke="#000000" stroke-width="1" fill="none"></path></g><g transform="translate(277 228.5) rotate(0 65 13)"><text x="0" y="18" font-family="Virgil, Segoe UI Emoji" font-size="20px" fill="#000000" text-anchor="start" style="white-space: pre;" direction="ltr">systemd-boot</text></g><g transform="translate(532.5 223) rotate(0 74.5 26)"><text x="74.5" y="18" font-family="Virgil, Segoe UI Emoji" font-size="20px" fill="#000000" text-anchor="middle" style="white-space: pre;" direction="ltr">unified kernel</text><text x="74.5" y="44" font-family="Virgil, Segoe UI Emoji" font-size="20px" fill="#000000" text-anchor="middle" style="white-space: pre;" direction="ltr">(includes initrd)</text></g><g stroke-linecap="round" transform="translate(357.890625 397) rotate(0 71.49999999999994 33.090909090909065)"><path d="M0 0 C0 0, 0 0, 0 0 M0 0 C0 0, 0 0, 0 0 M0.04 5.68 C1.39 4.62, 2.05 3.66, 4.9 1.15 M-0.4 6.11 C1.11 4.64, 2.51 2.56, 5.26 0.18 M0.62 11.62 C3.75 8.89, 6.08 5.43, 10.11 1.13 M-0.49 11.69 C3.58 7.81, 5.96 5.05, 10.28 0.54 M0.85 20.31 C4.23 13.14, 8.23 7.78, 14.33 0.53 M-0.01 17.61 C6.59 10.95, 11.83 3.72, 16.06 -0.12 M0.38 23.45 C7.5 18.53, 13.55 7.91, 22.24 -0.47 M-0.33 23.09 C8.36 16.02, 15.01 7.69, 21 0.16 M-1.47 31.17 C9.31 21.5, 14.8 12.25, 27.1 -0.25 M0.91 29.89 C7.07 22.7, 13.72 15.44, 25.71 -0.69 M-0.4 38.37 C9.28 26.35, 18.81 16.04, 31.37 0.11 M0.04 37.49 C10.77 23.25, 22.25 11, 31.26 -0.42 M1.8 41.02 C10.66 28.6, 22.96 17.53, 38.11 -0.67 M-0.63 42.65 C10.45 29.36, 22.42 16.45, 36.85 0.23 M0.12 50.7 C17.23 33.39, 30.64 14.16, 43.06 0.11 M0.3 48.04 C10.41 37.73, 20.91 25.9, 43.26 0.79 M1.72 55.41 C10.51 40.99, 24.9 29.25, 46.18 -0.69 M-0.01 54.42 C18.68 34.73, 36.49 14.09, 46.58 -0.42 M1.49 61.86 C13.44 48.61, 24.64 36.56, 51.75 0.16 M-0.79 61.08 C19.98 38.56, 39.48 14.94, 53.64 -0.97 M2.11 67.6 C12.62 54.41, 25.01 39.02, 59.91 -1.57 M-0.29 67.15 C14.61 49.22, 29.21 33.53, 57.83 0.16 M7.56 64.45 C24.62 41.27, 45.31 19.92, 62.7 -1.38 M5.93 65.33 C27.92 38.75, 51.39 14.51, 64.42 -0.07 M12.09 68.52 C23.44 52.37, 36.5 36.2, 67.66 0.17 M11.35 67.08 C29.3 44.74, 48.69 24.83, 68.42 -0.31 M14.13 68.81 C29.02 51.58, 43.03 37.5, 73.9 1.6 M16.61 67.45 C34.88 47.03, 52.6 25.66, 73.94 0.52 M20.55 64.94 C35.44 53.3, 47.2 40.86, 79.61 -1.27 M21.08 65.99 C42.83 41.3, 65.3 16.48, 80.01 -0.25 M25.45 65.56 C45.46 46.49, 65.67 23.66, 86.17 0.87 M25.95 67.48 C41.36 50.19, 55.2 34.04, 85.94 0.22 M33.66 65.29 C48.37 46.98, 63.33 28.06, 89.69 1.01 M32.94 65.99 C53.78 43.49, 72.48 20.29, 89.14 0.83 M36.19 66.96 C52.56 48.27, 69.23 31.3, 97.08 -0.02 M38.14 67.37 C53.37 47.14, 69.72 28.76, 96.49 -0.17 M42.38 65.72 C56.34 49.65, 70.35 33.2, 101.61 0.66 M43.33 66.58 C57.93 49.94, 71.67 33.05, 100.18 -0.69 M47.42 67.29 C63.64 50.01, 80.35 30.74, 106.99 0.15 M47.86 66.17 C61.27 52.07, 73.13 36.89, 107.03 0.54 M52.44 68.1 C69.63 47.62, 87.16 25.09, 110.89 0 M53.99 65.63 C74.62 39.62, 97.89 14.87, 110.38 0.45 M60.04 65.52 C78.9 41.8, 103.89 16.29, 116.4 -0.9 M58.69 65.83 C72.43 50.81, 86.46 34.67, 116.71 -0.29 M62.38 66 C82.2 47.42, 97.23 26.64, 122.81 0.12 M65.03 66.41 C82.17 45.82, 99.75 24.18, 122.84 -0.58 M68.71 67.33 C93.58 39.14, 113.86 14.84, 126.53 2 M70.03 66.21 C81.37 52.14, 92.72 39.12, 126 0.79 M73.47 66.74 C92.62 46.3, 106.36 28.11, 134.43 -1.19 M73.94 66.61 C94.89 44.14, 115.01 20.17, 133.53 0.25 M79.85 67.14 C98.01 46.92, 113.71 27.28, 137.44 0 M80.16 66.03 C101.09 40.72, 124.01 17.24, 137.75 0.91 M83.81 65.32 C98.75 52.49, 112.04 35.34, 144.6 0.55 M84.54 67.26 C108.52 40.23, 130.51 13.56, 142.27 0.9 M89.7 66.09 C103.02 51.94, 114.89 39.02, 143.37 7.24 M91.22 65.92 C104.97 48.41, 120.8 29.61, 143.61 6.87 M94.26 66.49 C107.11 53.05, 119.55 40.64, 141.45 10.66 M96.01 65.83 C112.14 45.34, 129.59 26.58, 143.25 12.26 M102.25 66.01 C108.26 57.04, 119.31 47.82, 144.59 19.58 M100.2 67.41 C113.18 52.68, 125.96 37.69, 142.8 18.82 M106.46 66.71 C118.04 51, 131.04 37.87, 143.23 25.76 M105.91 67.13 C120 51.38, 132.59 37.13, 142.85 25.73 M111.29 67.48 C121.24 53.37, 133.59 41.49, 141.38 28.51 M111.96 65.89 C117.37 59.37, 124.89 52.17, 143.17 31.25 M116.83 68.16 C126.18 55.83, 137.38 46.15, 143.44 37 M117.16 66.41 C124.33 58.65, 129.8 51.67, 143.78 37.41 M122.38 67.78 C130.63 56.52, 138.15 50.4, 141.59 43.31 M122.2 65.67 C126.82 60.58, 132.67 55.82, 143.68 42.11 M126.58 64.72 C132.97 61.38, 139.47 51.98, 143.39 48.52 M127 66.29 C131.66 61.27, 136.32 56.21, 142.65 49.57 M134.4 66.83 C133.67 63.75, 135.62 62.41, 143.07 55.6 M132.62 66.84 C135.75 63.86, 137.74 60.63, 142.19 54.65 M138.38 67.66 C139.49 64.16, 141.56 61.56, 143.85 60.69 M137.74 66.75 C139.7 64.96, 142.11 62.45, 143.34 60.76" stroke="#e64980" stroke-width="0.5" fill="none"></path><path d="M-1.85 -1.49 C48.94 -1.52, 97.58 0.09, 143.72 -1.55 M-0.64 -0.59 C36.08 -1.89, 71.91 -0.41, 142.36 -0.91 M144.15 1.55 C144.3 14.63, 141.11 30.34, 141.32 65.16 M142.53 -0.19 C143.16 17.52, 142.62 36.54, 143.35 66.48 M142.58 64.37 C106.3 63.5, 70.97 65.74, -0.06 65.7 M142.09 66.94 C87.38 65.34, 30.76 65.18, 0.26 65.2 M-1.61 67.74 C0.63 44.49, 0.16 19.67, -1.19 0.2 M0.63 67.12 C0.03 42.76, 0.71 19.94, -0.17 0.89" stroke="#000000" stroke-width="1" fill="none"></path></g><g stroke-linecap="round" transform="translate(508.890625 393.1709401709402) rotate(0 69.5 37)"><path d="M0 0 C0 0, 0 0, 0 0 M0 0 C0 0, 0 0, 0 0 M-0.32 6.17 C1.38 3.78, 3.43 2.9, 5.43 -0.04 M-0.46 6.31 C1.16 4.66, 2.89 2.58, 5.3 0.23 M1.36 12.85 C1.85 9.07, 6.27 5.49, 11.06 -0.37 M0.53 11.92 C3.4 8.85, 5.49 6.16, 10.57 -0.06 M-0.04 17.43 C3.29 15.08, 6.4 9.1, 14.71 1.54 M-0.25 18.98 C6.23 10.77, 11.28 4, 15.67 0.57 M0.02 25.44 C5.87 16.42, 12.6 10.79, 22.07 -0.8 M-0.67 24.48 C6.65 15.48, 13.64 8.15, 21.35 -0.94 M-1.6 31.38 C10.24 20.2, 19.43 7.67, 27.37 -0.48 M-0.04 29.95 C6.13 23.97, 11.67 17.8, 25.41 -0.06 M1.51 36.9 C9.44 25.58, 19.75 12.25, 30.87 -0.62 M0.13 37.33 C11.33 24.91, 23.02 11, 32.82 -0.82 M-0.21 44.08 C15.12 25.64, 26.41 12.68, 35.96 0.44 M0.62 43.26 C10.28 29.91, 19.51 18.47, 35.89 -0.69 M-0.05 50.47 C16.54 28.84, 31.87 13.42, 42.54 -2.11 M-0.07 48.43 C8.63 38.61, 17.79 26.41, 41.92 -0.49 M1.73 54.69 C18.12 35.44, 34.66 11.76, 48.03 -0.73 M-0.65 54.44 C10.99 41.81, 21.71 30.14, 47.37 0.7 M-1.12 59.21 C21.57 37.43, 39.31 17.4, 52.76 1.3 M-0.96 60.87 C16.71 44.46, 31.32 25.38, 53.5 -0.37 M-0.11 67.93 C18.11 42.54, 40.31 20.26, 56.91 0.71 M-0.95 68.14 C19.12 44.98, 37.62 22.4, 58.53 0 M0.24 73.23 C14.11 57.53, 27.45 43.18, 61.95 -1.01 M0.8 72.83 C22.66 46.14, 46.21 19.38, 63.29 0.5 M3.24 78.02 C21.13 57.43, 34.07 39.99, 67.6 1.27 M2.07 77.08 C18.13 58.91, 34.56 40.14, 69.41 -0.05 M9.54 77.33 C25.04 58.74, 41.63 38.07, 73.24 1.09 M7.82 76.34 C22.46 59.07, 38.68 40.46, 74.92 -0.61 M12.12 75.17 C36.77 47.9, 63.31 21.24, 78.85 -0.76 M13.31 75.59 C38.12 47.04, 62.61 19.69, 78.46 -0.84 M16.91 77.23 C33.43 58.79, 51.53 38.26, 86.47 0.53 M18.01 76.33 C43.5 47.19, 69.62 16.48, 84.91 -1.02 M23.14 74.76 C41.65 56.85, 60.78 34.15, 89.12 0.67 M24.12 75.7 C46.4 49.77, 68.03 24.11, 89.53 -0.91 M30.79 75.37 C48.38 55.91, 66.25 32.62, 96.23 -0.99 M29.25 75.6 C48.92 53.7, 69.91 30.42, 95.66 0.28 M35.49 75.86 C48.09 57.56, 66.14 41.03, 102.59 1.42 M33.57 76.75 C57.78 49.56, 80.94 25.15, 100.83 -0.94 M39.34 77.74 C64.93 48.45, 88.8 18.28, 105.78 1.02 M39.81 76.55 C61.47 52.99, 81.56 28.2, 106.47 -0.33 M45.08 76.33 C57.36 60.64, 73.09 44.07, 111.14 1.1 M45.67 75.42 C70.43 47.97, 95.47 18.69, 112 -0.75 M48.38 75.82 C68.62 54.51, 88.12 31.96, 116.49 0.59 M49.3 76.16 C76.09 46.15, 101.98 17.49, 115.87 0.64 M54.55 74.81 C70.44 59.95, 85.23 41.09, 120.4 1.14 M56.28 76.76 C68.72 60.99, 83.94 43.64, 121.02 -0.28 M59.51 77.16 C78.57 53.01, 100.24 31.63, 128.39 0.25 M59.77 77.53 C84.22 51.25, 106.28 24.71, 127.26 -0.22 M67.24 76.74 C80.04 60.82, 96.25 44.68, 131.7 -1.28 M66.17 75.18 C78.96 59.4, 94.26 43.76, 133.32 -0.65 M70.68 76.31 C89.88 56.77, 107.31 36.2, 138.26 1.58 M71.29 75.89 C96.12 48.93, 122.6 18.86, 137.95 0.3 M77.21 76.3 C91.71 58.97, 102.45 46.65, 142.12 3.08 M76 75.44 C96.27 54.97, 115.3 32.33, 140.7 1.18 M81.56 77.63 C103.72 53.8, 126.25 27.57, 141.7 7.76 M82.36 76.3 C94.06 61.82, 107.37 48.02, 142.24 7.56 M87.26 74.51 C104.52 59.15, 119.36 42.12, 139.87 12.51 M87.32 75.69 C99.35 62.5, 111.74 49.15, 141.78 14.36 M91.57 77.25 C105.27 59.26, 117.58 43.58, 141.57 20.9 M92.83 76.7 C109.39 58.58, 125.49 41.07, 140.85 21.47 M98.9 77.11 C111.52 63.06, 121.68 47.64, 141.98 25.73 M97.56 76.4 C109.71 62.47, 123.13 48.13, 140.68 26.58 M101.79 77.07 C115.57 61.32, 126.84 48.46, 140.72 34.14 M102.97 76.88 C115.23 64.36, 125.16 51.96, 140.67 33.53 M110.34 76.66 C114.98 67.75, 123.89 58.61, 140.64 39.07 M109.06 75.41 C115.76 68.21, 122.88 59.93, 142.35 38.16 M113.09 74.78 C125.19 64.42, 136.07 51.13, 142.79 44.19 M114.43 75.49 C121.31 67.43, 127.01 61.11, 140.57 44.39 M118.52 74.49 C125.49 68.98, 134.1 59.72, 141.14 51.38 M120.03 76.95 C124.72 70.26, 130.03 64.15, 141.48 52.06 M123.99 77.85 C129.36 70.17, 134.97 62.91, 140.84 57.8 M125.25 77.04 C129.53 70.1, 132.95 65.1, 140.98 57.29 M129.26 74.9 C133.51 72.33, 135.28 68.87, 142.25 63.03 M129.66 76.47 C134.52 71.2, 137.09 67.92, 142 63.72 M135.92 76.93 C137.3 73.51, 138.48 71.61, 142.11 69.62 M134.95 76.62 C137.29 73.72, 139.84 70.6, 141.92 68.32" stroke="#e64980" stroke-width="0.5" fill="none"></path><path d="M-1.43 -0.66 C39.62 0.65, 77.13 2.58, 139.08 -0.57 M-0.43 0.43 C28.47 -0.73, 57.14 -0.46, 138.33 0.63 M140.71 -0.28 C139.84 15.04, 139.77 33.32, 139.39 74.25 M138.24 0.84 C138.78 26.72, 140.59 53.98, 138.2 74.62 M140.14 74.09 C105.94 72.67, 72.08 73.99, -0.66 72.51 M139.35 73.7 C110.11 73.5, 81.44 73.26, -0.72 73.54 M-0.45 72.62 C1.88 48.75, 2.65 23.76, 1.01 -0.78 M-0.06 73.36 C-0.33 55.01, 0.1 34.43, 0.87 0.61" stroke="#000000" stroke-width="1" fill="none"></path></g><g stroke-linecap="round" transform="translate(657.5234375 403.203125) rotate(0 67.5 28)"><path d="M0 0 C0 0, 0 0, 0 0 M0 0 C0 0, 0 0, 0 0 M-0.26 6.34 C1.71 3.52, 3.99 2.39, 5.02 -0.04 M-0.47 6.22 C1.51 4.99, 2.58 3, 4.94 0.58 M-0.25 12.12 C3.85 8.28, 7.92 5.18, 10.43 1.05 M0.5 12.37 C2.83 8.86, 6.58 5.25, 9.88 0.28 M-0.15 18.62 C2.37 15.41, 6.74 8.58, 14.01 1.23 M0.01 19 C4.06 12.36, 9.26 6.75, 15.57 -0.2 M1.38 22.41 C6.49 16.37, 15.9 9.94, 23.03 -0.04 M-0.35 23.57 C6.23 17.25, 11.89 9.72, 21.65 0.39 M-1 32.34 C6.86 21.88, 17.67 9.59, 25.9 1.85 M0.73 30.02 C10.11 19.03, 19.68 8.58, 26.72 1.03 M-2.03 34.9 C8.17 27.09, 20.94 15.73, 31.96 1.45 M0.5 36.89 C10.18 23.18, 22.45 11.13, 31.95 -0.59 M-1.69 41.33 C8.15 34.25, 18.79 22.05, 38.34 0.39 M-0.34 42.78 C10.15 29.65, 22.04 17.68, 35.96 0.13 M0.96 48.65 C14.33 35.09, 24.96 16.24, 41.39 -1.88 M0.8 48.72 C15.93 31.74, 29.36 13.63, 41.55 -0.23 M-1.38 55.26 C17.71 34.65, 38.21 12.77, 47.65 0.8 M0.43 53.95 C11.26 42.87, 21.95 30.18, 46.81 1 M1.27 58.72 C19.49 36.69, 38.79 18.72, 53.25 0.06 M2.73 57.02 C21.51 36.06, 41.57 13.64, 53.8 -0.34 M5.7 57.32 C24.74 39.03, 37.18 24.05, 58.87 1.83 M8.31 57.72 C27.94 35.27, 46.66 12.55, 57.7 0.88 M13.79 59.19 C23.67 44.04, 33.91 32.58, 65.17 1.14 M12.64 57.32 C29.95 38.11, 46.22 20.43, 63.46 0.15 M17.89 59.29 C29.7 44.75, 41.95 28.91, 67.75 -1.02 M18.78 57.99 C30.01 44.76, 42.04 31.12, 68.95 -0.6 M23.04 56 C39.79 36.5, 59.11 17.32, 72.54 1.04 M23.68 58.59 C35.1 45.75, 46.42 32.29, 73.64 0.14 M27.89 57.97 C39.9 42.68, 53.64 27.17, 78.77 -1.43 M28.4 57.78 C42.9 42.37, 56.73 26.04, 79.75 -0.49 M34.12 56.84 C48.85 39.27, 67.36 20.37, 86.42 -0.82 M33.73 58.11 C51.4 37.63, 68.49 18.34, 84.88 -0.59 M39.4 58.17 C52.67 42.37, 65.56 28.27, 91.12 -0.33 M40.37 59.16 C50.75 46.62, 59.71 33.63, 89.21 0.56 M46.84 58.16 C58.96 41.53, 74.94 20.76, 95.62 0.79 M44.56 57.54 C60.86 40.95, 74.27 23.29, 96.1 -0.4 M49.87 58.5 C66.56 37.54, 82.79 21.79, 100.72 0.14 M50.29 58.09 C61.28 46.49, 71.62 32.91, 101.3 -0.77 M57.74 59.18 C68.41 40.69, 85.2 26.16, 104.67 -1.13 M54.87 57.88 C72.4 39.34, 88.14 19.85, 105.59 -0.79 M60.43 57.33 C77.53 38.49, 93.08 22.98, 110.18 -1.38 M61.16 57.37 C74.69 41.57, 88.23 26.48, 111.91 0.57 M65.43 56.7 C75.63 45.76, 87.55 34.34, 115.14 0.97 M66.55 59.23 C75.98 47.14, 85.58 34.91, 115.4 1.34 M69.95 58.81 C89.36 34.06, 108.68 14.01, 122.87 0.54 M72.37 57.67 C82.76 42.77, 96.69 29.34, 121.8 -1.01 M75.18 59.99 C88.56 42.45, 101.99 28.9, 126.31 0.12 M76.36 58.81 C94.42 38.85, 110.54 17.04, 126.92 -0.3 M81.01 58.9 C92.6 43.32, 103.8 31.99, 132.84 0.11 M82.68 58.51 C101.76 36.77, 119.57 14.37, 131.63 -0.75 M85.03 57.39 C100.69 41.47, 117.68 20.82, 136.54 2.2 M87.01 58.47 C101.86 39.63, 117.96 22.46, 137.34 0.87 M93.92 59.3 C105.08 42.83, 118.86 26.85, 136.33 5.86 M93.26 57.29 C108.51 37.67, 127.06 19.11, 136.39 7.04 M98.4 59.27 C111.32 42.18, 125.29 26.23, 135.39 14.64 M96.72 58.63 C108.63 47, 118.21 33.97, 136.66 14.1 M104.69 57.53 C117.06 43.33, 129.33 29.29, 137.47 20.54 M102.68 58.24 C116.21 42.49, 129.95 28.36, 136.13 19.83 M109.42 56.76 C115.47 50.37, 122.87 43.06, 135.12 26.54 M107.62 58.1 C119.37 46.52, 127.79 34.58, 136.3 26.35 M115.07 56.86 C124.08 46.86, 129.37 37.98, 138.41 32.16 M113.87 57.47 C119.24 51.3, 123.93 45.71, 137.13 30.92 M116.93 59.8 C124.57 53.37, 131.08 43.14, 135.91 36.32 M118.73 59.04 C124.41 51.17, 130.84 45.09, 137.26 37.04 M126.32 56.52 C128.34 54.13, 134.81 46.96, 135.54 42.97 M125.11 57.95 C127.29 54.36, 129.52 51.39, 136.9 45.19 M130.07 58.72 C132.58 56.16, 133.05 52.87, 136.52 50.8 M129.22 58.1 C131.81 55.88, 133.62 53.86, 137.21 50.36" stroke="#4c6ef5" stroke-width="0.5" fill="none"></path><path d="M0.38 -1.6 C29.4 -2.49, 56.89 -2.7, 136.14 0.09 M0.51 -0.33 C37.69 0, 76.33 0.63, 135.35 -0.3 M134.38 -1.44 C134.05 16, 133.15 30.97, 134.55 54.62 M134.91 0.5 C134.55 19.84, 134.21 40.06, 134.94 55.36 M134.58 57.73 C107.47 56.02, 76.98 56.4, 0.35 56.25 M135.13 56.94 C93.63 56.21, 50.42 57.34, -0.48 55.21 M-0.29 56.77 C0.13 35.68, 2.11 13.32, -0.13 -0.56 M0.9 56.55 C-0.14 40.25, -0.47 24.94, -0.51 -0.22" stroke="#000000" stroke-width="1" fill="none"></path></g><g stroke-linecap="round" transform="translate(800.890625 406) rotate(0 71.5 31)"><path d="M0 0 C0 0, 0 0, 0 0 M0 0 C0 0, 0 0, 0 0 M-0.28 6.84 C0.35 4.63, 2.42 4.12, 5.7 1.07 M-0.21 6.15 C1.12 4.46, 3.07 2.39, 5.04 0.52 M1.62 11.23 C5.22 6.64, 8.52 4.29, 9.8 -0.31 M-0.23 12.62 C3.64 7.62, 7.75 2.88, 11.06 0.35 M-1.42 16.67 C3.77 9.92, 13.11 5.94, 17.21 0.4 M0.04 19.2 C5.74 10.72, 10.88 4.99, 15.62 0.38 M-1.33 22.25 C4.49 17.2, 12.67 12.83, 21.04 1.39 M-0.61 23.6 C6.97 16.02, 12.45 9.65, 21.09 -0.99 M-0.05 31.57 C7.25 22.83, 16.58 11.43, 24.27 -0.84 M-0.58 31.4 C5.23 24.94, 10.89 16.9, 25.34 -0.68 M0.02 35.23 C9.48 25.53, 19.18 17.11, 31.97 0.04 M-0.25 37.04 C9.99 25.15, 21.49 13.24, 31.51 -0.8 M-0.8 41.15 C14.64 26.3, 25.85 12.6, 36.61 0.35 M1.06 42.61 C10.33 29.05, 23.28 16.81, 37.06 0.91 M1.41 47 C10.96 36.62, 22.91 19.71, 44.18 0.59 M-0.82 49.6 C15.13 30.7, 31.41 10.86, 42.02 -0.57 M-0.47 55.09 C19.45 33.77, 34.43 12.75, 47.7 1.62 M0.85 53.94 C16.92 34.99, 34.17 14.94, 47.92 -0.1 M1 60.6 C19.14 39.25, 37.29 18.29, 53.29 -1.19 M0.47 61.49 C12.94 45.85, 26.7 31.02, 54.07 0.01 M3.86 63.48 C12.76 48.51, 26.05 36.13, 57.77 -1.69 M2.52 64.12 C23.89 41, 44.33 17.75, 58.43 -0.58 M8.29 62.95 C26.86 40.33, 45.41 19.42, 62.67 -0.83 M8.32 63.46 C20.12 49.69, 33.39 35.23, 63.96 0.15 M11.52 63.9 C25.25 47.22, 39.11 34.32, 67.83 1.53 M13.25 63.51 C28.21 46.27, 43.1 28.45, 69.45 0 M20.42 63.8 C33.95 47.45, 47.84 30.71, 73.46 0.85 M18.64 64.76 C35.78 46.79, 50.81 27.4, 73.87 -1.06 M24.51 65.95 C43.35 40.5, 63.88 18.92, 77.69 0.07 M23 63.68 C43.19 42.14, 63.4 17.71, 79.2 0.54 M27.94 63.6 C45.67 44.97, 59.78 25.85, 86.63 -0.22 M29.35 64.02 C46.72 44.65, 64.61 24.6, 84.81 0.37 M33.14 66.19 C47.88 48.23, 58.14 36.36, 91.93 -1.55 M35.09 63.32 C48.76 47.71, 64.06 30.31, 90.26 -0.63 M40.8 63.5 C53.29 48.48, 67 31.93, 96.88 -1.42 M39.34 64.23 C52.15 49.12, 64.88 34.01, 95.67 0.31 M45.51 63.87 C63.44 40.35, 85.08 18.51, 101.91 -1.08 M44.74 64.99 C64.63 43.04, 82.62 21.26, 100.57 -0.83 M51.75 62.35 C72.86 37.12, 92.63 11.78, 106.71 0.6 M50.86 64.77 C68.76 41.74, 86.58 22.24, 106.21 -0.46 M57.5 62.96 C68.53 50.62, 77.44 38.35, 111.77 -0.58 M55.99 64.14 C71.7 46.13, 88.24 26.19, 110.43 0.03 M61.63 63.51 C75.03 49, 85.53 34.07, 115.77 0.67 M59.87 65.17 C77.71 45.71, 94.38 25.01, 115.36 -0.54 M66.76 62.15 C77.91 47.36, 92.99 33.92, 120.44 -0.36 M66.77 64.12 C86.06 40.78, 105.04 18.68, 121.5 0.44 M72.07 65.75 C88.12 46.11, 102.25 29.08, 125.41 0.06 M71.65 65.09 C82.15 49.39, 94.37 37, 126.9 0.11 M78.74 64.85 C91.79 47.76, 104.93 31.74, 131.62 -1.02 M75.84 63.17 C96.15 42.97, 115.09 20.34, 131.8 0.25 M83.49 65.86 C99 45.38, 117.03 24.81, 136.84 1.03 M81.88 63.84 C101.02 41.48, 120.21 19.36, 138.5 -0.31 M88.66 65.2 C104.75 42.87, 124.96 22.08, 143.79 -1.46 M87.85 63.4 C105.31 43.99, 123.95 21.05, 142.7 -0.28 M91.75 65.57 C108.35 45.91, 125.51 22.61, 142.43 7.84 M92.24 64.37 C109.13 45.48, 125.37 25.96, 142.09 6.56 M99.52 62.05 C110.14 51.54, 121.36 39.8, 141.74 11.24 M98.29 63.85 C108.54 52.28, 117.3 41.52, 143.44 12.59 M101.5 66.35 C109.61 54.43, 120.66 47.26, 141.59 17.44 M102.8 65 C112.35 53.87, 120.79 43.01, 142.72 18.94 M108.1 64.96 C123.02 50.3, 136.01 31.99, 141.35 24.32 M108.51 63.41 C121.23 49.85, 134.06 34.88, 142.97 25.57 M112.15 63.37 C123.37 53.2, 134.96 38.86, 142.76 29.45 M112.95 64.48 C121.22 56.24, 127.78 47.36, 143.53 29.91 M118.97 64.22 C129.38 55.76, 136.17 45.47, 142.76 38.52 M118.73 63.88 C128.25 55.13, 136.96 44.14, 142.05 36.58 M123.91 63.53 C132.4 54.59, 136.03 48.41, 142.91 44.24 M124.46 64.92 C129.24 59.36, 131.79 54.48, 144.28 42.47 M130.47 64.84 C133.05 58.81, 136.52 55.77, 142.93 50.59 M129.03 62.95 C132.28 60.27, 135.46 57.41, 142.84 48.2 M135.44 63.78 C136.89 61.76, 139.79 58.89, 142.4 55.5 M134.65 64.6 C138 61.78, 140.29 58.6, 142.89 55.25 M140.6 64.02 C141.32 63.44, 141.83 62.71, 143.4 60.75 M140.51 63.75 C141.17 63.06, 141.63 62.65, 143.05 61.03" stroke="#4c6ef5" stroke-width="0.5" fill="none"></path><path d="M1.43 -0.29 C32.35 0.51, 64.15 2.49, 142.93 -0.13 M0.1 0.9 C39.43 0.42, 77.89 0.09, 143.68 -0.51 M142.11 -0.07 C144.14 16.56, 142.7 33.84, 144.2 63.54 M142.8 0.56 C142.67 21.55, 141.81 42.51, 143.69 62.5 M143.47 62.01 C102.05 61.57, 59.9 62.32, 1.4 62.09 M142.73 61.48 C106.84 63.22, 72.49 62.02, 0.41 61.88 M-1.97 61.52 C0.03 40.5, -0.21 19.52, 0.69 -0.25 M0.11 62.46 C0.52 38.82, 0.41 17, 0.04 -0.94" stroke="#000000" stroke-width="1" fill="none"></path></g><g transform="translate(1030 101.5) rotate(0 60.5 13)"><text x="60.5" y="18" font-family="Virgil, Segoe UI Emoji" font-size="20px" fill="#000000" text-anchor="middle" style="white-space: pre;" direction="ltr">TPM2</text></g><g transform="translate(1321.83984375 535) rotate(0 42.5 13)"><text x="42.5" y="18" font-family="Virgil, Segoe UI Emoji" font-size="20px" fill="#000000" text-anchor="middle" style="white-space: pre;" direction="ltr">/usr/ FS</text></g><g transform="translate(1623 538) rotate(0 38.5 13)"><text x="38.5" y="18" font-family="Virgil, Segoe UI Emoji" font-size="20px" fill="#000000" text-anchor="middle" style="white-space: pre;" direction="ltr">root FS</text></g><g transform="translate(1808 537.5) rotate(0 74.5 13)"><text x="74.5" y="18" font-family="Virgil, Segoe UI Emoji" font-size="20px" fill="#000000" text-anchor="middle" style="white-space: pre;" direction="ltr">/home/ FS</text></g><g transform="translate(2026.5 540.5) rotate(0 23.5 13)"><text x="23.5" y="18" font-family="Virgil, Segoe UI Emoji" font-size="20px" fill="#000000" text-anchor="middle" style="white-space: pre;" direction="ltr">swap</text></g><g transform="translate(362.890625 414.5909090909091) rotate(0 66.49999999999994 15.5)"><text x="66.49999999999996" y="22" font-family="Virgil, Segoe UI Emoji" font-size="23.963963963963945px" fill="#495057" text-anchor="middle" style="white-space: pre;" direction="ltr">sysext #1</text></g><g transform="translate(513.890625 398.1709401709402) rotate(0 64.5 32)"><text x="64.5" y="22" font-family="Virgil, Segoe UI Emoji" font-size="24.11214953271028px" fill="#495057" text-anchor="middle" style="white-space: pre;" direction="ltr">sysext </text><text x="64.5" y="54" font-family="Virgil, Segoe UI Emoji" font-size="24.11214953271028px" fill="#495057" text-anchor="middle" style="white-space: pre;" direction="ltr">#2 </text></g><g transform="translate(658.5234375 419.203125) rotate(0 64 13)"><text x="64" y="18" font-family="Virgil, Segoe UI Emoji" font-size="20px" fill="#495057" text-anchor="middle" style="white-space: pre;" direction="ltr">credential #1</text></g><g transform="translate(805.890625 411) rotate(0 66.5 26)"><text x="66.5" y="18" font-family="Virgil, Segoe UI Emoji" font-size="20px" fill="#495057" text-anchor="middle" style="white-space: pre;" direction="ltr">credential </text><text x="66.5" y="44" font-family="Virgil, Segoe UI Emoji" font-size="20px" fill="#495057" text-anchor="middle" style="white-space: pre;" direction="ltr">#2 </text></g><g stroke-linecap="round"><g transform="translate(132.15625 120.40625) rotate(0 96.86351948834957 19.949222121462242)"><path d="M-0.11 0.42 C32.23 6.87, 160.58 32.62, 193.11 39.19 M-1.63 -0.41 C31.17 6.13, 162.61 33.38, 195.36 40.31" stroke="#d9480f" stroke-width="1" fill="none"></path></g><g transform="translate(132.15625 120.40625) rotate(0 96.86351948834957 19.949222121462242)"><path d="M166.36 43.11 C170.82 45.43, 178.48 43.39, 195.25 41.99 M165.29 44.46 C176.02 43.35, 186.77 42.3, 194.95 39.65" stroke="#d9480f" stroke-width="1" fill="none"></path></g><g transform="translate(132.15625 120.40625) rotate(0 96.86351948834957 19.949222121462242)"><path d="M170.56 23.02 C174.18 29.75, 180.91 32.12, 195.25 41.99 M169.48 24.37 C178.78 30.17, 188.08 36.03, 194.95 39.65" stroke="#d9480f" stroke-width="1" fill="none"></path></g></g><g stroke-linecap="round"><g transform="translate(347.15625 108.40625) rotate(0 120.66252890121194 30.50259040046484)"><path d="M0.17 -0.11 C40.56 10.09, 201.98 51.74, 242.53 62.23 M-1.21 -1.22 C38.99 8.55, 200.75 50.04, 241.46 60.42" stroke="#d9480f" stroke-width="1" fill="none"></path></g><g transform="translate(347.15625 108.40625) rotate(0 120.66252890121194 30.50259040046484)"><path d="M211.41 62.99 C222 63.55, 232.34 61.71, 240.79 60.64 M210.86 62.5 C221.77 61.75, 232.93 60.7, 241.24 60.5" stroke="#d9480f" stroke-width="1" fill="none"></path></g><g transform="translate(347.15625 108.40625) rotate(0 120.66252890121194 30.50259040046484)"><path d="M216.5 43.11 C225.65 49.94, 234.39 54.36, 240.79 60.64 M215.94 42.62 C225.14 49.3, 234.41 55.65, 241.24 60.5" stroke="#d9480f" stroke-width="1" fill="none"></path></g></g><g stroke-linecap="round"><g transform="translate(541.6165322739631 310.49189647249875) rotate(0 -55.09933837234041 39.304706999035545)"><path d="M0.46 -0.91 C-17.81 11.98, -92.37 64.93, -110.66 78.29 M-0.76 1.22 C-18.54 14.19, -90.19 66.89, -108.35 79.52" stroke="#d9480f" stroke-width="1" fill="none"></path></g><g transform="translate(541.6165322739631 310.49189647249875) rotate(0 -55.09933837234041 39.304706999035545)"><path d="M-92.96 53.48 C-95.78 61.13, -97.82 65.59, -107.48 79.48 M-90.7 54.41 C-95.19 60.9, -100.38 68.69, -107.79 80.1" stroke="#d9480f" stroke-width="1" fill="none"></path></g><g transform="translate(541.6165322739631 310.49189647249875) rotate(0 -55.09933837234041 39.304706999035545)"><path d="M-80.99 70.14 C-86.46 74.32, -91.03 75.26, -107.48 79.48 M-78.72 71.07 C-86.59 73, -95.14 76.13, -107.79 80.1" stroke="#d9480f" stroke-width="1" fill="none"></path></g></g><g stroke-linecap="round"><g transform="translate(548.0730838895589 307.17493289820845) rotate(0 33.458265887061145 36.09837278550492)"><path d="M-0.84 0.53 C10.64 12.53, 56.32 59.15, 67.76 70.99 M0.92 -0.23 C12.43 12.04, 56.28 60.81, 67.4 72.43" stroke="#d9480f" stroke-width="1" fill="none"></path></g><g transform="translate(548.0730838895589 307.17493289820845) rotate(0 33.458265887061145 36.09837278550492)"><path d="M41.62 60.54 C45.84 63.6, 52.35 66.51, 69.38 72.51 M40.36 58.26 C47.72 62.65, 55.39 66.22, 67.62 72.39" stroke="#d9480f" stroke-width="1" fill="none"></path></g><g transform="translate(548.0730838895589 307.17493289820845) rotate(0 33.458265887061145 36.09837278550492)"><path d="M56.7 46.62 C57.67 52.46, 61.06 58.26, 69.38 72.51 M55.43 44.34 C58.67 52.47, 62.16 59.89, 67.62 72.39" stroke="#d9480f" stroke-width="1" fill="none"></path></g></g><g transform="translate(66.15625 138.40625) rotate(0 78 9.476635514018682)"><text x="78.00000000000001" y="12.953271028037378" font-family="Virgil, Segoe UI Emoji" font-size="14.579439252336456px" fill="#d9480f" text-anchor="middle" style="white-space: pre;" direction="ltr">SecureBoot validates</text></g><g transform="translate(478.15625 121.54643691588785) rotate(0 17.5 9.5)"><text x="17.5" y="13" font-family="Virgil, Segoe UI Emoji" font-size="13.73831775700934px" fill="#d9480f" text-anchor="middle" style="white-space: pre;" direction="ltr">ditto</text></g><g transform="translate(224.15625 334.54643691588785) rotate(0 131.5 9.5)"><text x="131.5" y="13" font-family="Virgil, Segoe UI Emoji" font-size="13.73831775700934px" fill="#d9480f" text-anchor="middle" style="white-space: pre;" direction="ltr">Validates via Verity/PKCS#7 signature</text></g><g stroke-linecap="round"><g transform="translate(708.3984375 315.3125) rotate(0 30.535426319101816 36.824939815457924)"><path d="M0.58 0.54 C8.54 3.78, 37.47 7.6, 47.65 19.69 C57.82 31.77, 59.38 64.05, 61.64 73.06 M-0.57 -0.23 C7.21 2.65, 36.3 5.57, 46.51 17.93 C56.72 30.28, 58.27 64.41, 60.69 73.88" stroke="#5f3dc4" stroke-width="1" fill="none"></path></g><g transform="translate(708.3984375 315.3125) rotate(0 30.535426319101816 36.824939815457924)"><path d="M47.83 48.46 C52.12 55.6, 53.4 62.09, 60.26 71.88 M46.01 48.79 C52.2 57.56, 55.49 65.81, 61.14 73.72" stroke="#5f3dc4" stroke-width="1" fill="none"></path></g><g transform="translate(708.3984375 315.3125) rotate(0 30.535426319101816 36.824939815457924)"><path d="M67.01 45.43 C65.73 53.54, 61.44 60.91, 60.26 71.88 M65.19 45.76 C65.27 55.39, 62.47 64.61, 61.14 73.72" stroke="#5f3dc4" stroke-width="1" fill="none"></path></g></g><g stroke-linecap="round"><g transform="translate(1047.3984827909837 143.3125) rotate(0 -138.37250527125946 122.89117157272997)"><path d="M-5.44 -0.13 C-38.65 6.7, -160.88 -0.43, -205.19 40.58 C-249.5 81.58, -260.2 211.34, -271.3 245.91" stroke="#5f3dc4" stroke-width="1.5" fill="none" stroke-dasharray="8 9"></path></g><g transform="translate(1047.3984827909837 143.3125) rotate(0 -138.37250527125946 122.89117157272997)"><path d="M-275.81 215.07 C-273.94 224.73, -274.9 232.9, -269.63 247.62" stroke="#5f3dc4" stroke-width="1.5" fill="none"></path></g><g transform="translate(1047.3984827909837 143.3125) rotate(0 -138.37250527125946 122.89117157272997)"><path d="M-255.72 219.26 C-259.95 227.74, -267.03 234.63, -269.63 247.62" stroke="#5f3dc4" stroke-width="1.5" fill="none"></path></g></g><g stroke-linecap="round"><g transform="translate(749.3984375 225.3125) rotate(0 57.88092450291845 89.01624244563283)"><path d="M-0.13 1.18 C14.51 3.84, 69.35 -12.76, 88.94 16.89 C108.53 46.55, 112.47 152.29, 117.41 179.12 M-1.65 0.76 C13.24 3.44, 71.43 -11.58, 91.09 17.85 C110.76 47.28, 111.67 150.51, 116.34 177.36" stroke="#5f3dc4" stroke-width="1" fill="none"></path></g><g transform="translate(749.3984375 225.3125) rotate(0 57.88092450291845 89.01624244563283)"><path d="M105.48 148.48 C106.94 159.99, 115.72 172.65, 116.16 176.81 M104.41 149.71 C106.5 157.57, 109.13 163.6, 116.09 178.35" stroke="#5f3dc4" stroke-width="1" fill="none"></path></g><g transform="translate(749.3984375 225.3125) rotate(0 57.88092450291845 89.01624244563283)"><path d="M125.91 146.57 C119.32 158.82, 120.02 172.23, 116.16 176.81 M124.85 147.81 C121.68 156.02, 119.06 162.55, 116.09 178.35" stroke="#5f3dc4" stroke-width="1" fill="none"></path></g></g><g stroke-linecap="round"><g transform="translate(1052.3984375 152.3125) rotate(0 -90.16560258083052 128.39782073311508)"><path d="M0.67 -0.21 C-22.77 17, -109.76 59.23, -140.04 102.1 C-170.32 144.97, -174.45 231.12, -181 257" stroke="#5f3dc4" stroke-width="1.5" fill="none" stroke-dasharray="8 9"></path></g><g transform="translate(1052.3984375 152.3125) rotate(0 -90.16560258083052 128.39782073311508)"><path d="M-186.92 225.79 C-183.08 236.15, -184.62 249.24, -182.03 256.77" stroke="#5f3dc4" stroke-width="1.5" fill="none"></path></g><g transform="translate(1052.3984375 152.3125) rotate(0 -90.16560258083052 128.39782073311508)"><path d="M-166.67 229.1 C-169.89 238.41, -178.53 250.34, -182.03 256.77" stroke="#5f3dc4" stroke-width="1.5" fill="none"></path></g></g><g transform="translate(892.4945913461543 335.3125) rotate(0 86.5 19)"><text x="86.5" y="13" font-family="Virgil, Segoe UI Emoji" font-size="14.61538461538464px" fill="#5f3dc4" text-anchor="middle" style="white-space: pre;" direction="ltr">Decrypts+Authenticates</text><text x="86.5" y="32" font-family="Virgil, Segoe UI Emoji" font-size="14.61538461538464px" fill="#5f3dc4" text-anchor="middle" style="white-space: pre;" direction="ltr">via TPM2 Secret</text></g><g stroke-linecap="round"><g transform="translate(752.3984375 273.3125) rotate(0 280.8997253821045 95.70651814229785)"><path d="M0.39 1.03 C70.13 4.08, 325.53 -13.87, 418.83 18.07 C512.13 50.02, 536.44 163.78, 560.2 192.69 M-0.87 0.53 C68.66 3.81, 323.87 -12.05, 417.79 19.65 C511.72 51.35, 538.66 161.92, 562.67 190.72" stroke="#087f5b" stroke-width="1" fill="none"></path></g><g transform="translate(752.3984375 273.3125) rotate(0 280.8997253821045 95.70651814229785)"><path d="M541.78 170.72 C547.66 176.15, 556.21 184.7, 561.95 189.43 M539.47 170.84 C547.19 177.58, 555.37 183.47, 561.95 190.62" stroke="#087f5b" stroke-width="1" fill="none"></path></g><g transform="translate(752.3984375 273.3125) rotate(0 280.8997253821045 95.70651814229785)"><path d="M559.74 160.8 C559.63 169.58, 562.21 181.43, 561.95 189.43 M557.43 160.91 C559.23 171.01, 561.45 180.21, 561.95 190.62" stroke="#087f5b" stroke-width="1" fill="none"></path></g></g><g transform="translate(1207.8984375 290.506332599119) rotate(0 56 8)"><text x="56" y="11" font-family="Virgil, Segoe UI Emoji" font-size="12.158590308370043px" fill="#087f5b" text-anchor="middle" style="white-space: pre;" direction="ltr">Pins via root hash</text></g><g stroke-linecap="round"><g transform="translate(746.3671875 210.3125) rotate(0 448.926829541782 119.65767901821394)"><path d="M0.14 0.01 C118.28 -1.38, 558.35 -53.59, 708.17 -9.42 C858 34.76, 867.38 219.52, 899.09 265.08 M-1.24 -1.02 C116.89 -2.16, 557.81 -52.67, 707.84 -8.1 C857.86 36.48, 867.05 221, 898.9 266.44" stroke="#c92a2a" stroke-width="1" fill="none"></path></g><g transform="translate(746.3671875 210.3125) rotate(0 448.926829541782 119.65767901821394)"><path d="M879.32 245.69 C883.27 251.17, 888.97 255.76, 897.18 266.95 M879.42 244.18 C886.5 251.21, 891.9 259.62, 899.02 265.6" stroke="#c92a2a" stroke-width="1" fill="none"></path></g><g transform="translate(746.3671875 210.3125) rotate(0 448.926829541782 119.65767901821394)"><path d="M898.5 238.4 C897.63 245.71, 898.57 252.11, 897.18 266.95 M898.6 236.89 C899.23 246.26, 898.21 257.11, 899.02 265.6" stroke="#c92a2a" stroke-width="1" fill="none"></path></g></g><g transform="translate(1167.8671875 192.73644822006474) rotate(0 98.5 8.288025889967628)"><text x="98.49999999999994" y="11.576051779935273" font-family="Virgil, Segoe UI Emoji" font-size="12.750809061488667px" fill="#c92a2a" text-anchor="middle" style="white-space: pre;" direction="ltr">LUKS unlocks via TPM2 secret</text></g><g stroke-linecap="round"><g transform="translate(1141.3671875 138.3125) rotate(0 253.41628529615696 170.10753079466522)"><path d="M-0.23 0.74 C66.96 9.65, 318.53 -2.28, 403.08 54.17 C487.63 110.63, 489.59 292.12, 507.07 339.47" stroke="#c92a2a" stroke-width="1.5" fill="none" stroke-dasharray="8 9"></path></g><g transform="translate(1141.3671875 138.3125) rotate(0 253.41628529615696 170.10753079466522)"><path d="M492.77 313.93 C496.51 321.43, 501.53 330.4, 505.89 339" stroke="#c92a2a" stroke-width="1.5" fill="none"></path></g><g transform="translate(1141.3671875 138.3125) rotate(0 253.41628529615696 170.10753079466522)"><path d="M512.91 309.96 C510.79 318.57, 509.95 328.7, 505.89 339" stroke="#c92a2a" stroke-width="1.5" fill="none"></path></g></g><g stroke-linecap="round"><g transform="translate(1342.3671875 617.3125) rotate(0 434.5053276848945 -61.66156978038401)"><path d="M0.41 -0.53 C52.95 37.82, 174.02 210.46, 314.91 229.73 C455.8 249.01, 771.93 211.75, 845.76 115.14 C919.58 18.53, 808.65 -305.71, 757.87 -349.94 C707.09 -394.16, 577.29 -183.2, 541.08 -150.23 M-0.83 1.81 C52.09 39.85, 176.02 209.4, 317.05 228 C458.09 246.59, 771.89 210.05, 845.39 113.4 C918.89 16.74, 808.92 -308.13, 758.05 -351.93 C707.19 -395.74, 576.74 -183.08, 540.18 -149.43" stroke="#c92a2a" stroke-width="1" fill="none"></path></g><g transform="translate(1342.3671875 617.3125) rotate(0 434.5053276848945 -61.66156978038401)"><path d="M548.92 -179.66 C548.3 -168.8, 546.35 -162.51, 541.95 -147.63 M549 -178.44 C547.34 -167.68, 542.63 -157.58, 539.85 -150.22" stroke="#c92a2a" stroke-width="1" fill="none"></path></g><g transform="translate(1342.3671875 617.3125) rotate(0 434.5053276848945 -61.66156978038401)"><path d="M564.93 -166.83 C559.99 -159.41, 553.67 -156.63, 541.95 -147.63 M565.02 -165.61 C557.45 -159.67, 546.91 -154.25, 539.85 -150.22" stroke="#c92a2a" stroke-width="1" fill="none"></path></g></g><g stroke-linecap="round"><g transform="translate(1388.3671875 619.3125) rotate(0 404.7808177289604 -40.26075878187419)"><path d="M0.95 -1.09 C41.87 19.56, 116.2 116.74, 246.2 124.85 C376.19 132.97, 700.37 101.44, 780.91 47.61 C861.45 -6.22, 751.96 -167.22, 729.44 -198.14 C706.93 -229.05, 659.66 -147.77, 645.84 -137.88 M-0.01 0.96 C40.8 21.19, 115.86 115.22, 245.88 123.18 C375.89 131.14, 699.43 102.62, 780.1 48.72 C860.78 -5.18, 752.56 -169.21, 729.92 -200.24 C707.29 -231.26, 658.51 -148.04, 644.28 -137.43" stroke="#c92a2a" stroke-width="1" fill="none"></path></g><g transform="translate(1388.3671875 619.3125) rotate(0 404.7808177289604 -40.26075878187419)"><path d="M652.91 -163.56 C652.64 -155.56, 646.83 -144.63, 645.72 -137.7 M654.01 -165.5 C652.16 -157.21, 648.38 -147.84, 645.04 -136.91" stroke="#c92a2a" stroke-width="1" fill="none"></path></g><g transform="translate(1388.3671875 619.3125) rotate(0 404.7808177289604 -40.26075878187419)"><path d="M668.55 -150.27 C662.58 -146.9, 651.18 -140.71, 645.72 -137.7 M669.64 -152.2 C662.9 -148.14, 654.27 -142.89, 645.04 -136.91" stroke="#c92a2a" stroke-width="1" fill="none"></path></g></g><g stroke-linecap="round"><g transform="translate(1161.53125 111.8125) rotate(0 363.86767091564843 168.20909689925014)"><path d="M0.95 -0.73 C100.76 -0.8, 477.8 -60.51, 598.77 0.15 C719.74 60.81, 705.43 302.73, 726.78 363.22" stroke="#c92a2a" stroke-width="1.5" fill="none" stroke-dasharray="8 9"></path></g><g transform="translate(1161.53125 111.8125) rotate(0 363.86767091564843 168.20909689925014)"><path d="M711.19 338.17 C717.03 345.85, 721.39 353.76, 726.98 363.56" stroke="#c92a2a" stroke-width="1.5" fill="none"></path></g><g transform="translate(1161.53125 111.8125) rotate(0 363.86767091564843 168.20909689925014)"><path d="M731.48 335.09 C731.34 343.85, 729.71 352.66, 726.98 363.56" stroke="#c92a2a" stroke-width="1.5" fill="none"></path></g></g><g stroke-linecap="round"><g transform="translate(1138.53125 81.8125) rotate(0 449.32700174637137 168.8091707085818)"><path d="M-0.14 -0.35 C109.31 -6.95, 507.73 -106.2, 657.55 -39.59 C807.38 27.03, 858.38 326.17, 898.79 399.36" stroke="#c92a2a" stroke-width="1.5" fill="none" stroke-dasharray="8 9"></path></g><g transform="translate(1138.53125 81.8125) rotate(0 449.32700174637137 168.8091707085818)"><path d="M878.93 375.62 C885.67 384.54, 894.36 395.16, 899.64 398.34" stroke="#c92a2a" stroke-width="1.5" fill="none"></path></g><g transform="translate(1138.53125 81.8125) rotate(0 449.32700174637137 168.8091707085818)"><path d="M898.22 368.61 C897.82 380.1, 899.39 393.31, 899.64 398.34" stroke="#c92a2a" stroke-width="1.5" fill="none"></path></g></g><g transform="translate(1553.7578125 696.890625) rotate(0 154.5 13)"><text x="154.5" y="18" font-family="Virgil, Segoe UI Emoji" font-size="20px" fill="#c92a2a" text-anchor="middle" style="white-space: pre;" direction="ltr">LUKS unlocks via TPM2 secret</text></g><g transform="translate(1650.140625 813.71875) rotate(0 25 13)"><text x="25" y="18" font-family="Virgil, Segoe UI Emoji" font-size="20px" fill="#c92a2a" text-anchor="middle" style="white-space: pre;" direction="ltr">ditto</text></g><g transform="translate(588.390625 323.71875) rotate(0 25 13)"><text x="25" y="18" font-family="Virgil, Segoe UI Emoji" font-size="20px" fill="#e67700" text-anchor="middle" style="white-space: pre;" direction="ltr">ditto</text></g><g transform="translate(703.390625 338.71875) rotate(0 25 13)"><text x="25" y="18" font-family="Virgil, Segoe UI Emoji" font-size="20px" fill="#5f3dc4" text-anchor="middle" style="white-space: pre;" direction="ltr">ditto</text></g></svg>